<svg width="29" height="24" viewBox="0 0 29 24" fill="none" xmlns="http://www.w3.org/2000/svg">
<path d="M4.39258 21.1396C3.21484 21.1396 2.32129 20.8408 1.71191 20.2432C1.1084 19.6455 0.806641 18.7607 0.806641 17.5889V3.74609C0.806641 2.58008 1.1084 1.69824 1.71191 1.10059C2.32129 0.50293 3.21484 0.204102 4.39258 0.204102H20.1074C21.2852 0.204102 22.1758 0.505859 22.7793 1.10938C23.3887 1.70703 23.6934 2.58594 23.6934 3.74609V10.3115C23.5352 10.2881 23.377 10.2705 23.2188 10.2588C23.0605 10.2412 22.9023 10.2324 22.7441 10.2324C22.5742 10.2324 22.4102 10.2412 22.252 10.2588C22.0938 10.2705 21.9268 10.291 21.751 10.3203V7.20898C21.751 6.66406 21.6074 6.25684 21.3203 5.9873C21.0391 5.71191 20.6377 5.57422 20.1162 5.57422H4.36621C3.83887 5.57422 3.4375 5.71191 3.16211 5.9873C2.88672 6.25684 2.74902 6.66406 2.74902 7.20898V17.5625C2.74902 18.1133 2.88672 18.5234 3.16211 18.793C3.4375 19.0684 3.83887 19.2061 4.36621 19.2061H15.748C15.8125 19.5518 15.9062 19.8857 16.0293 20.208C16.1582 20.5361 16.3135 20.8467 16.4951 21.1396H4.39258ZM10.0352 9.51172C9.8418 9.51172 9.70996 9.47656 9.63965 9.40625C9.56934 9.33594 9.53418 9.20703 9.53418 9.01953V8.36035C9.53418 8.16699 9.56934 8.03809 9.63965 7.97363C9.70996 7.90332 9.8418 7.86816 10.0352 7.86816H10.7031C10.8906 7.86816 11.0195 7.90332 11.0898 7.97363C11.166 8.03809 11.2041 8.16699 11.2041 8.36035V9.01953C11.2041 9.20703 11.166 9.33594 11.0898 9.40625C11.0195 9.47656 10.8906 9.51172 10.7031 9.51172H10.0352ZM13.7969 9.51172C13.6035 9.51172 13.4688 9.47656 13.3926 9.40625C13.3223 9.33594 13.2871 9.20703 13.2871 9.01953V8.36035C13.2871 8.16699 13.3223 8.03809 13.3926 7.97363C13.4688 7.90332 13.6035 7.86816 13.7969 7.86816H14.4648C14.6582 7.86816 14.79 7.90332 14.8604 7.97363C14.9307 8.03809 14.9658 8.16699 14.9658 8.36035V9.01953C14.9658 9.20703 14.9307 9.33594 14.8604 9.40625C14.79 9.47656 14.6582 9.51172 14.4648 9.51172H13.7969ZM17.5498 9.51172C17.3623 9.51172 17.2334 9.47656 17.1631 9.40625C17.0928 9.33594 17.0576 9.20703 17.0576 9.01953V8.36035C17.0576 8.16699 17.0928 8.03809 17.1631 7.97363C17.2334 7.90332 17.3623 7.86816 17.5498 7.86816H18.2178C18.4111 7.86816 18.543 7.90332 18.6133 7.97363C18.6836 8.03809 18.7188 8.16699 18.7188 8.36035V9.01953C18.7188 9.20703 18.6836 9.33594 18.6133 9.40625C18.543 9.47656 18.4111 9.51172 18.2178 9.51172H17.5498ZM6.27344 13.2031C6.08594 13.2031 5.95703 13.1709 5.88672 13.1064C5.81641 13.042 5.78125 12.9131 5.78125 12.7197V12.0518C5.78125 11.8643 5.81641 11.7383 5.88672 11.6738C5.95703 11.6035 6.08594 11.5684 6.27344 11.5684H6.94141C7.13477 11.5684 7.2666 11.6035 7.33691 11.6738C7.41309 11.7383 7.45117 11.8643 7.45117 12.0518V12.7197C7.45117 12.9131 7.41309 13.042 7.33691 13.1064C7.2666 13.1709 7.13477 13.2031 6.94141 13.2031H6.27344ZM10.0352 13.2031C9.8418 13.2031 9.70996 13.1709 9.63965 13.1064C9.56934 13.042 9.53418 12.9131 9.53418 12.7197V12.0518C9.53418 11.8643 9.56934 11.7383 9.63965 11.6738C9.70996 11.6035 9.8418 11.5684 10.0352 11.5684H10.7031C10.8906 11.5684 11.0195 11.6035 11.0898 11.6738C11.166 11.7383 11.2041 11.8643 11.2041 12.0518V12.7197C11.2041 12.9131 11.166 13.042 11.0898 13.1064C11.0195 13.1709 10.8906 13.2031 10.7031 13.2031H10.0352ZM13.7969 13.2031C13.6035 13.2031 13.4688 13.1709 13.3926 13.1064C13.3223 13.042 13.2871 12.9131 13.2871 12.7197V12.0518C13.2871 11.8643 13.3223 11.7383 13.3926 11.6738C13.4688 11.6035 13.6035 11.5684 13.7969 11.5684H14.4648C14.6582 11.5684 14.79 11.6035 14.8604 11.6738C14.9307 11.7383 14.9658 11.8643 14.9658 12.0518V12.7197C14.9658 12.9131 14.9307 13.042 14.8604 13.1064C14.79 13.1709 14.6582 13.2031 14.4648 13.2031H13.7969ZM6.27344 16.9121C6.08594 16.9121 5.95703 16.877 5.88672 16.8066C5.81641 16.7363 5.78125 16.6074 5.78125 16.4199V15.752C5.78125 15.5645 5.81641 15.4385 5.88672 15.374C5.95703 15.3037 6.08594 15.2686 6.27344 15.2686H6.94141C7.13477 15.2686 7.2666 15.3037 7.33691 15.374C7.41309 15.4385 7.45117 15.5645 7.45117 15.752V16.4199C7.45117 16.6074 7.41309 16.7363 7.33691 16.8066C7.2666 16.877 7.13477 16.9121 6.94141 16.9121H6.27344ZM10.0352 16.9121C9.8418 16.9121 9.70996 16.877 9.63965 16.8066C9.56934 16.7363 9.53418 16.6074 9.53418 16.4199V15.752C9.53418 15.5645 9.56934 15.4385 9.63965 15.374C9.70996 15.3037 9.8418 15.2686 10.0352 15.2686H10.7031C10.8906 15.2686 11.0195 15.3037 11.0898 15.374C11.166 15.4385 11.2041 15.5645 11.2041 15.752V16.4199C11.2041 16.6074 11.166 16.7363 11.0898 16.8066C11.0195 16.877 10.8906 16.9121 10.7031 16.9121H10.0352ZM13.7969 16.9121C13.6035 16.9121 13.4688 16.877 13.3926 16.8066C13.3223 16.7363 13.2871 16.6074 13.2871 16.4199V15.752C13.2871 15.5645 13.3223 15.4385 13.3926 15.374C13.4688 15.3037 13.6035 15.2686 13.7969 15.2686H14.4648C14.6582 15.2686 14.79 15.3037 14.8604 15.374C14.9307 15.4385 14.9658 15.5645 14.9658 15.752V16.4199C14.9658 16.6074 14.9307 16.7363 14.8604 16.8066C14.79 16.877 14.6582 16.9121 14.4648 16.9121H13.7969ZM22.7354 23.2402C21.9443 23.2402 21.2002 23.0908 20.5029 22.792C19.8115 22.4932 19.1992 22.0771 18.666 21.5439C18.1328 21.0166 17.7168 20.4043 17.418 19.707C17.1191 19.0098 16.9697 18.2686 16.9697 17.4834C16.9697 16.6924 17.1191 15.9512 17.418 15.2598C17.7168 14.5625 18.1328 13.9473 18.666 13.4141C19.1992 12.8809 19.8115 12.4648 20.5029 12.166C21.2002 11.8672 21.9443 11.7178 22.7354 11.7178C23.5264 11.7178 24.2676 11.8672 24.959 12.166C25.6562 12.4648 26.2686 12.8809 26.7959 13.4141C27.3291 13.9414 27.7451 14.5537 28.0439 15.251C28.3428 15.9482 28.4922 16.6924 28.4922 17.4834C28.4922 18.2686 28.3398 19.0068 28.0352 19.6982C27.7363 20.3955 27.3203 21.0107 26.7871 21.5439C26.2539 22.0771 25.6387 22.4932 24.9414 22.792C24.25 23.0908 23.5146 23.2402 22.7354 23.2402ZM20.0195 18.4062H22.7969C23.002 18.4062 23.1719 18.3359 23.3066 18.1953C23.4473 18.0547 23.5176 17.8818 23.5176 17.6768V14.1436C23.5176 13.9502 23.4473 13.7832 23.3066 13.6426C23.1719 13.502 23.002 13.4316 22.7969 13.4316C22.5918 13.4316 22.4189 13.502 22.2783 13.6426C22.1377 13.7832 22.0674 13.9502 22.0674 14.1436V16.9561H20.0195C19.8145 16.9561 19.6387 17.0264 19.4922 17.167C19.3516 17.3076 19.2812 17.4775 19.2812 17.6768C19.2812 17.876 19.3516 18.0459 19.4922 18.1865C19.6387 18.333 19.8145 18.4062 20.0195 18.4062Z" fill="#999999"/>
</svg>
