<svg width="148" height="146" viewBox="0 0 148 146" fill="none" xmlns="http://www.w3.org/2000/svg">
<path d="M147.98 98.5043L147.884 105.335L147.896 112.274V142.356L146.539 142.777L142.075 144.166C138.161 145.383 133.616 146 128.57 146C106.346 146 78.6266 133.965 77.4584 133.452C77.2979 133.38 61.4128 126.461 47.1254 126.167C47.005 126.167 46.8845 126.167 46.7601 126.167H46.7239C35.5478 126.167 13.6491 134.052 11.1882 134.956L2.61339 138.095L0.00401443 139.05V90.2688L1.23644 89.7914L4.44799 88.5461V51.2196H0V30.8336H1.93897L22.3323 30.8455V9.34954L25.2467 11.0364L27.3182 12.234C27.6715 12.4329 33.669 15.7152 41.2643 15.7152C43.396 15.7152 45.4714 15.4526 47.4385 14.9394C57.4144 12.3414 62.8379 9.10685 65.6239 6.84704C67.876 5.0209 68.6427 3.6324 68.7471 3.42949L69.277 2.03701L70.0518 0L71.9948 1.01452L82.894 6.71178L83.9257 7.25285V8.40663L83.9377 16.2722H87.1171H104.544L110.947 16.2205L112.902 16.2045V34.3307L116.603 37.8119L122.605 43.4018L123.612 44.3407L123.046 45.5899L121.818 48.2993C129.301 50.7899 134.516 57.8 134.516 65.7849C134.516 70.5433 132.717 75.1345 129.538 78.5839L137.269 95.0311C137.422 95.3136 138.116 96.4276 139.706 96.4514L146.065 96.5469L148 96.5787L147.972 98.4964L147.98 98.5043Z" fill="white"/>
<path d="M145.937 105.325L145.949 112.276V140.947L141.485 142.336C137.76 143.493 133.412 144.082 128.563 144.082C106.702 144.082 79.3932 132.202 78.2411 131.696C78.0685 131.621 61.8993 124.555 47.1591 124.248C47.0186 124.248 46.87 124.248 46.7215 124.248C35.1967 124.248 13.0061 132.241 10.5173 133.153L1.94298 136.292V91.5787L6.38671 89.8559V49.2926H1.93896V32.749L24.27 32.761V12.6882L26.3534 13.8938C26.4176 13.9296 32.9488 17.6298 41.2662 17.6298C43.5583 17.6298 45.8023 17.3513 47.9338 16.7943C58.2544 14.1086 63.9184 10.7068 66.8528 8.33149C69.7671 5.96811 70.5338 4.18564 70.5378 4.16972L71.0918 2.7135L81.9904 8.41106L82.0024 18.1948H87.1165H104.55L110.961 18.1431V35.1602L115.276 39.2145L121.277 44.8046L119.114 49.5791C126.801 51.0791 132.577 57.8629 132.577 65.7925C132.577 70.4954 130.59 75.051 127.21 78.1942L135.528 95.8917C136.138 97.0813 137.543 98.3545 139.675 98.3864L146.033 98.4818L145.937 105.329V105.325Z" fill="#F1D112"/>
<path d="M139.646 100.304C136.64 100.26 134.653 98.4301 133.79 96.7352L124.834 77.685L125.167 77.4144C128.595 74.6372 130.638 70.2924 130.638 65.7925C130.638 58.213 124.669 51.8191 117.05 51.2343L116.264 51.1746L118.941 45.2662L113.939 40.611L110.68 37.5474L107.653 40.8299C107.352 41.1482 106.923 41.546 106.469 41.928L105.558 42.6919V34.9015H109.018V20.0767L104.55 20.1125H85.1293H80.0634V19.5635L80.0473 9.56887L72.0671 5.39517C71.5774 6.29039 70.4293 7.90178 68.073 9.81158C62.4892 14.3394 54.3042 17.1165 48.4194 18.6484C46.1272 19.2452 43.7227 19.5476 41.262 19.5476C34.0766 19.5476 28.2921 17.033 26.2007 15.9866V34.6708L3.86963 34.6588V47.359H8.31336V91.1808L7.18938 91.5907L3.86963 92.8758V133.519L9.83475 131.334C12.3597 130.411 34.8513 122.311 46.7093 122.311C46.8699 122.311 47.0304 122.311 47.183 122.311C62.4089 122.625 78.8591 129.854 79.0197 129.926C80.1477 130.419 107.099 142.145 128.551 142.145C133.204 142.145 137.358 141.588 140.891 140.485L143.998 139.519V112.26L143.986 105.289L144.054 100.352L139.63 100.284L139.646 100.304Z" fill="#1F3667"/>
<path d="M141.095 105.222C141.095 104.156 140.256 103.252 139.185 103.165H139.136C135.736 102.998 132.686 101.012 131.168 97.9805L121.113 76.5828L121.45 76.4118C125.267 74.4701 127.736 70.3044 127.736 65.7925C127.736 59.331 122.433 54.0751 115.914 54.0751H111.735C111.764 54.0353 111.792 53.9995 111.816 53.9597L114.726 47.5579C114.866 47.2515 114.935 46.9253 114.935 46.5871C114.935 45.9585 114.706 45.3855 114.256 44.8882L112.474 43.2171L112.317 43.0898C111.912 42.8033 111.43 42.6481 110.933 42.6481C110.294 42.6481 109.696 42.8948 109.243 43.3444C109.202 43.3842 105.064 47.4783 100.761 47.7688C97.9707 47.9558 96.084 47.9757 95.1406 47.9677L95.1567 38.2516H96.658C96.9791 38.2516 97.1959 38.4506 97.2882 38.6336L97.7097 39.4572H100.765C101.812 39.4572 102.663 38.6177 102.663 37.5792V32.2795C102.663 32.196 102.659 32.1124 102.647 32.0289H104.301C105.309 32.0289 106.124 31.2172 106.124 30.2225V24.8194C106.124 23.8327 105.321 23.0329 104.329 23.013H103.213H84.0293C84.0293 23.013 83.9972 23.013 83.9771 23.013H81.8857C81.8857 23.013 81.8536 23.0091 81.8335 23.0091H71.7097L77.169 21.3937L77.1529 12.4893C77.1529 11.7452 76.7234 11.0728 76.049 10.7545L73.7569 9.545C73.488 9.38982 73.203 9.31025 72.9019 9.31025C72.2315 9.31025 71.81 9.77974 71.4006 10.3407C71.1477 10.6869 69.3172 13.7784 59.0208 18.2584C52.6703 21.0237 46.4362 22.4282 40.4911 22.4282C35.8226 22.4282 32.7397 21.5449 31.6037 21.1589C31.415 21.0993 31.2183 21.0674 31.0176 21.0674C29.9699 21.0674 29.1189 21.9109 29.1189 22.9494V36.3737C29.1189 36.8312 29.2915 37.249 29.5685 37.5752L8.86718 37.5633C7.71911 37.5633 6.7838 38.4904 6.7838 39.6283V42.4373C6.7838 43.5752 7.71911 44.5022 8.86718 44.5022H9.01169C10.236 44.5022 11.2315 45.489 11.2315 46.7025V91.6822C11.2315 92.6092 10.6415 93.4408 9.75432 93.7551L8.13659 94.344L8.00011 94.3997C7.28156 94.7418 6.81993 95.4699 6.81993 96.2538L6.77979 106.336L8.83908 105.584C11.2436 104.705 32.7036 96.9699 45.3443 96.4129L46.8015 96.3493V90.2976C46.8015 89.1597 45.8662 88.2326 44.7181 88.2326H44.6298C43.7467 88.2883 42.7752 88.3758 41.6593 88.5071C41.302 88.5191 40.9969 88.2326 40.9969 87.8785C40.9969 87.8188 41.005 87.7631 41.021 87.7074L42.8194 82.2168H52.1484L54.3281 87.8228C54.3482 87.8825 54.3562 87.9461 54.3562 88.0098C54.3562 88.356 54.0712 88.6384 53.7461 88.6384C53.718 88.6384 53.6818 88.6345 53.6497 88.6305C52.4696 88.4873 51.478 88.3758 50.3701 88.2963C50.3139 88.2923 50.2537 88.2883 50.1975 88.2883C49.0494 88.2883 48.1141 89.2154 48.1141 90.3533V96.389L49.5432 96.4766C64.6888 97.3996 80.0472 104.171 80.2078 104.243C80.3483 104.307 94.6389 110.553 110.298 113.971L112.149 114.377V104.713C112.149 103.746 111.462 102.902 110.515 102.695L108.813 102.297C107.749 102.035 107.007 101.088 107.007 99.9978L106.995 80.2035L123.204 114.679C123.617 115.531 124.464 116.088 125.408 116.132C126.476 116.187 127.519 116.215 128.531 116.215C132.918 116.215 136.776 115.706 140.04 114.691L141.107 114.361L141.095 105.238V105.222ZM43.2489 53.0128C43.2489 53.3947 43.3653 53.7528 43.566 54.0512H42.3056C41.4144 54.0512 40.6236 54.6122 40.3306 55.4637L37.5849 63.7395V53.912C37.5849 52.774 36.6495 51.847 35.4814 51.847L31.4391 51.9067L31.3709 53.3231C31.3147 54.4929 30.3392 55.412 29.155 55.412H26.6542V46.8616H35.939C37.1634 46.8616 38.1589 47.8484 38.1589 49.0619V49.8855C38.1589 51.0234 39.0942 51.9505 40.2423 51.9505H42.7391C42.9197 51.9505 43.0883 51.9226 43.2569 51.8788V53.0168L43.2489 53.0128ZM83.2465 28.9215C83.4874 29.0011 83.7322 29.2358 83.7322 29.5859V48.8072C83.7322 49.1574 83.4874 49.3921 83.2465 49.4717L82.9896 49.5552L82.7407 49.4478C82.4838 49.3364 82.3152 49.0818 82.3152 48.8072V29.5859C82.3152 29.3074 82.4798 29.0568 82.7407 28.9453L82.9896 28.8379L83.2465 28.9215ZM97.7057 30.3976L97.2642 31.1376C97.1357 31.3525 96.9069 31.4838 96.654 31.4838H95.1567V30.3737L97.7057 30.3976ZM91.4074 62.8562V93.8347C91.4074 94.8214 90.5965 95.6251 89.601 95.6251C88.6055 95.6251 87.7946 94.8214 87.7946 93.8347V62.8562C87.7946 62.0246 88.3606 61.3124 89.1715 61.1175L89.6893 60.9941L90.1871 61.1652C90.9177 61.4119 91.4074 62.0962 91.4074 62.8602V62.8562ZM29.2514 88.8493C29.0747 89.3745 28.5649 89.7246 27.9829 89.7246C27.2483 89.7246 26.6501 89.1636 26.6501 88.4713V64.3681H29.151C30.3553 64.3681 31.3709 65.4026 31.3709 66.632V68.14H35.5015C35.7303 68.14 35.9511 68.1041 36.1598 68.0365L29.2514 88.8533V88.8493ZM69.2971 31.4719V29.5382C69.2971 29.192 69.538 28.9533 69.7788 28.8737L70.0237 28.7942L70.2646 28.8857C70.5375 28.9931 70.7142 29.2477 70.7142 29.5382V31.4719H69.3011H69.2971ZM70.7101 39.4572V48.8072C70.7101 49.0977 70.5295 49.3523 70.2565 49.4598L70.0157 49.5513L69.7708 49.4717C69.53 49.3921 69.2891 49.1574 69.2891 48.8072V39.4572H70.7061H70.7101ZM57.9971 54.8907H69.7066V56.1202C69.7066 56.1202 69.7066 56.1321 69.7066 56.1401V60.827L70.8386 61.1254C71.6254 61.3323 72.1753 62.0445 72.1753 62.8562L72.2074 89.9992C72.2074 90.1265 72.1031 90.226 71.9786 90.226C71.8702 90.226 71.79 90.1543 71.7619 90.0788L58.2581 55.4398C58.1898 55.2369 58.0895 55.0499 57.965 54.8828C57.9771 54.8828 57.9851 54.8828 57.9971 54.8828V54.8907ZM57.684 32.0567V48.8072C57.684 49.1136 57.4793 49.3881 57.1822 49.4796L56.9414 49.5513L56.7126 49.4598C56.4436 49.3523 56.271 49.0977 56.271 48.8112L56.2831 31.1098L57.2184 31.3644C57.4994 31.44 57.688 31.7225 57.688 32.0607L57.684 32.0567ZM36.6817 37.1256C38.2512 33.8631 41.302 31.4917 44.8225 30.7278L44.7944 39.4293C44.686 38.3909 43.8069 37.5792 42.7351 37.5792H36.3966C36.509 37.4439 36.6094 37.2928 36.6817 37.1296V37.1256Z" fill="#F1D112"/>
<path fill-rule="evenodd" clip-rule="evenodd" d="M94.3943 49.4518C94.3943 49.4518 96.57 49.5513 100.857 49.2648C105.783 48.9346 110.319 44.3988 110.319 44.3988C110.475 44.2436 110.688 44.1481 110.929 44.1481C111.117 44.1481 111.29 44.2078 111.431 44.3073L113.121 45.8829C113.301 46.0858 113.414 46.2927 113.414 46.5792C113.414 46.7025 113.386 46.8219 113.337 46.9293L110.499 53.1918C110.435 53.3032 110.315 53.3748 110.174 53.3748H84.0657C83.857 53.3748 83.6924 53.2077 83.6924 53.0048L83.7285 50.9001C84.6197 50.6096 85.2619 49.7781 85.2619 48.7993V29.578C85.2619 28.5992 84.6197 27.7677 83.7285 27.4772V24.7955C83.7285 24.6324 83.865 24.4971 84.0296 24.4971H104.297C104.462 24.5011 104.598 24.6364 104.598 24.7995V30.2027C104.598 30.3658 104.462 30.5011 104.297 30.5011H101.439C101.275 30.5011 101.138 30.3658 101.138 30.2027V28.8658L93.9407 28.8499C93.7761 28.8499 93.6396 28.9852 93.6396 29.1483V32.9838H96.6583C97.4772 32.9838 98.1917 32.5461 98.5811 31.8936H100.765C100.974 31.8936 101.138 32.0567 101.138 32.2597V37.5593C101.138 37.7623 100.97 37.9294 100.765 37.9294H98.6453C98.276 37.2132 97.5254 36.7198 96.6583 36.7198H93.6356L93.6195 48.664C93.6195 49.0937 93.9688 49.4399 94.4023 49.4399L94.3943 49.4518Z" fill="#EE4623"/>
<path fill-rule="evenodd" clip-rule="evenodd" d="M45.1479 53.3828H55.7655C55.9742 53.3828 56.1388 53.2117 56.1388 53.0088V50.8523C55.3239 50.5221 54.7499 49.7303 54.7499 48.8033L54.7619 27.3817C54.7619 26.8366 55.1152 26.3751 55.6049 26.204L75.6398 20.2558L75.6278 12.4773C75.6278 12.3062 75.5234 12.159 75.3709 12.0954L73.0065 10.85C72.9744 10.8301 72.9423 10.8142 72.9021 10.8142C72.8058 10.8142 72.7416 10.8978 72.7054 10.9694C72.2759 11.8328 70.0521 15.0953 59.6312 19.6351C44.2126 26.3472 33.4906 23.391 31.1343 22.5833C31.0981 22.5714 31.058 22.5634 31.0179 22.5634C30.8091 22.5634 30.6445 22.7306 30.6445 22.9335V36.3577C30.6445 36.5646 30.8131 36.7278 31.0179 36.7278H34.9317C35.1003 36.7278 35.2448 36.6283 35.305 36.4851C37.2399 32.4427 41.1818 29.5382 45.8504 29.0249C46.1073 29.0249 46.3521 29.2239 46.3521 29.4785L46.2879 48.8033C46.2879 49.7741 45.6537 50.6017 44.7746 50.8961V53.0088C44.7746 53.2157 44.9432 53.3788 45.1479 53.3788V53.3828Z" fill="#EE4623"/>
<path d="M82.1307 27.5608C81.3439 27.9029 80.794 28.6788 80.794 29.5859V48.8073C80.794 49.7144 81.3439 50.4903 82.1307 50.8324V53.0088C82.1307 53.2157 81.9621 53.3788 81.7574 53.3788H71.1879C70.9792 53.3788 70.8146 53.2117 70.8146 53.0088V50.8643C71.6415 50.542 72.2316 49.7423 72.2316 48.8073V37.9453H67.7718V48.8073C67.7718 49.782 68.4101 50.6096 69.2932 50.904V53.0128C69.2932 53.2197 69.1246 53.3828 68.9199 53.3828H58.0013C57.7925 53.3828 57.6279 53.2157 57.6279 53.0128V50.9239C58.5472 50.6494 59.2135 49.8059 59.2135 48.8073V32.0567C59.2135 31.0422 58.5713 30.1629 57.6279 29.9042V28.6549C57.6279 28.0621 58.0013 27.5568 58.5271 27.3539L68.8276 24.3022C68.8597 24.2902 68.8958 24.2863 68.932 24.2863C69.1327 24.2863 69.2972 24.4494 69.2972 24.6483V27.4414C68.4141 27.7358 67.7799 28.5634 67.7799 29.5342V32.9758H72.2397V29.5342C72.2397 28.5992 71.6496 27.7955 70.8226 27.4732V24.8035C70.8226 24.6404 70.9551 24.5051 71.1237 24.5051H81.8417C82.0062 24.5011 82.1427 24.6324 82.1427 24.7995V27.5568L82.1307 27.5608Z" fill="#EE4623"/>
<path fill-rule="evenodd" clip-rule="evenodd" d="M45.268 90.2498V94.8891C32.5069 95.454 11.4202 103.014 8.30518 104.152L8.33729 96.2458C8.33729 96.027 8.46574 95.836 8.65441 95.7445L10.2721 95.1556C11.7173 94.6424 12.7489 93.2737 12.7489 91.6623V46.6826C12.7489 44.6335 11.075 42.9744 9.00766 42.9744H8.86315C8.55406 42.9744 8.30518 42.7277 8.30518 42.4214V39.6124C8.30518 39.306 8.55406 39.0593 8.86315 39.0593L42.7311 39.0792C43.0402 39.0792 43.289 39.3259 43.289 39.6323V49.8775C43.289 50.1839 43.0402 50.4306 42.7311 50.4306H40.2342C39.9251 50.4306 39.6762 50.1839 39.6762 49.8775V49.0539C39.6762 47.0049 38.0023 45.3457 35.935 45.3457H26.1122C25.5703 45.3457 25.1287 45.7834 25.1287 46.3205V56.9159H29.151C31.1541 56.9159 32.7919 55.3523 32.8882 53.3908L35.5015 53.355C35.8106 53.355 36.0594 53.6016 36.0594 53.908V66.071C36.0594 66.3774 35.8106 66.6241 35.5015 66.6241H32.8922C32.8922 64.575 31.2183 62.8522 29.151 62.8522H25.1287V88.4674C25.1287 89.9952 26.4053 91.2326 27.9828 91.2326C29.2513 91.2326 30.3231 90.4329 30.6965 89.3268L41.7797 55.9372C41.856 55.7183 42.0647 55.5632 42.3096 55.5632L56.2871 55.5472C56.54 55.5472 56.7567 55.7143 56.825 55.9451L70.3448 90.6238C70.5977 91.2724 71.236 91.7339 71.9826 91.7339C72.9501 91.7339 73.7368 90.9541 73.7368 89.9952L73.7047 62.8522C73.7047 61.3244 72.657 60.0392 71.24 59.6652V56.1361C71.24 55.8297 71.4889 55.583 71.798 55.583H88.2803C88.5894 55.583 88.8383 55.8297 88.8383 56.1361L88.8182 59.6493C87.3571 59.9995 86.2772 61.3005 86.2772 62.8562V93.8347C86.2772 95.657 87.7665 97.1331 89.605 97.1331C91.4435 97.1331 92.9328 95.657 92.9328 93.8347V62.8562C92.9328 61.4079 91.9935 60.1785 90.6848 59.7329L90.6648 56.1361C90.6648 55.8297 90.9137 55.583 91.2227 55.583H115.914C121.602 55.583 126.211 60.1546 126.211 65.7885C126.211 69.7514 124.083 73.372 120.755 75.067L119.712 75.5922C119.487 75.7155 119.33 75.9502 119.33 76.2248C119.33 76.3242 119.35 76.4197 119.386 76.5073L119.611 76.9688L129.795 98.6331C131.497 102.059 134.998 104.474 139.06 104.669C139.349 104.693 139.574 104.931 139.574 105.222L139.582 113.239C135.447 114.524 130.582 114.874 125.484 114.616C125.083 114.596 124.737 114.357 124.573 114.015L107.508 77.7208C107.348 77.3428 106.971 77.0802 106.529 77.0802C105.943 77.0802 105.465 77.5537 105.465 78.1346L105.477 99.9898C105.477 101.804 106.738 103.332 108.436 103.754L110.174 104.16C110.427 104.211 110.619 104.434 110.619 104.701V112.487C94.9279 109.061 80.8179 102.855 80.8179 102.855C80.8179 102.855 65.2428 95.9156 49.6275 94.9607V90.3453C49.6275 90.039 49.8764 89.7923 50.1855 89.7923C50.2055 89.7923 50.2216 89.7923 50.2417 89.7923C51.3576 89.8719 52.3852 89.9912 53.4932 90.1265C53.5453 90.1265 53.6577 90.1384 53.7099 90.1384C54.9022 90.1384 55.8696 89.1796 55.8696 87.9979C55.8696 87.7552 55.8294 87.5204 55.7532 87.3016L53.3125 81.0351C53.2282 80.8361 53.0275 80.6969 52.7987 80.6969H42.1089C41.856 80.6969 41.6392 80.864 41.571 81.0948L39.5558 87.2499C39.4956 87.4448 39.4635 87.6517 39.4635 87.8626C39.4635 89.0443 40.4309 90.0032 41.6231 90.0032C41.6793 90.0032 41.7355 90.0032 41.7877 89.9952C42.8354 89.8679 43.8149 89.7764 44.7101 89.7246C45.0192 89.7246 45.268 89.9713 45.268 90.2777" fill="#EE4623"/>
<path fill-rule="evenodd" clip-rule="evenodd" d="M106.509 70.0374V62.8721H108.946C110.937 62.8721 112.559 64.4794 112.559 66.4528C112.559 68.4261 110.937 70.0335 108.946 70.0335H106.509V70.0374Z" fill="#1F3667"/>
<path d="M108.946 63.8946C110.371 63.8946 111.531 65.0445 111.531 66.457C111.531 67.8694 110.371 69.0193 108.946 69.0193H107.537V63.8986H108.946M108.946 61.8535H106.036C105.726 61.8535 105.478 62.1002 105.478 62.4066V70.5073C105.478 70.8137 105.726 71.0604 106.036 71.0604H108.946C111.511 71.0604 113.59 68.9994 113.59 66.457C113.59 63.9145 111.511 61.8535 108.946 61.8535Z" fill="#F1D112"/>
<path d="M47.0303 65.3469C46.9139 65.3469 46.8136 65.4304 46.7935 65.5379L44.4091 72.6081C44.389 72.6558 44.377 72.7036 44.377 72.7593C44.377 72.9741 44.5496 73.1452 44.7663 73.1452H49.6797C49.8965 73.1452 50.0691 72.9741 50.0691 72.7593C50.0691 72.6996 50.0571 72.6479 50.033 72.5962L47.2592 65.4941C47.223 65.4066 47.1347 65.3469 47.0344 65.3469H47.0303Z" fill="#F1D112"/>
<path d="M47.1186 69.3296L48.0219 71.6371H46.3398L47.1186 69.3296Z" fill="#1F3667"/>
<path fill-rule="evenodd" clip-rule="evenodd" d="M8.30518 127.228C11.5888 126.027 34.8672 117.679 47.2872 117.938C63.6491 118.276 80.8219 125.927 80.8219 125.927C80.8219 125.927 118.985 142.718 139.582 136.316V119.008C118.985 125.41 80.8219 108.62 80.8219 108.62C80.8219 108.62 63.6491 100.969 47.2872 100.63C34.8672 100.376 11.5888 108.719 8.30518 109.921V127.228Z" fill="#098944"/>
<path fill-rule="evenodd" clip-rule="evenodd" d="M83.5479 118.193C83.5238 119.183 83.4475 120.166 83.0461 121.097C82.9217 121.387 82.7611 121.65 82.5564 121.885C81.9462 122.601 81.1635 122.736 80.3405 122.279C79.2487 121.674 78.6225 120.703 78.3093 119.557C77.7955 117.675 77.6791 115.769 78.2491 113.868C78.3214 113.621 78.3977 113.386 78.5382 113.167C79.3209 111.938 80.4208 111.767 81.5609 112.69C82.6005 113.529 82.9779 114.719 83.295 115.921C83.4877 116.657 83.5519 117.425 83.5439 118.193H83.5479ZM79.2607 117.086C79.337 118.252 79.3209 119.386 79.6983 120.48C79.8227 120.834 79.9712 121.169 80.2161 121.443C80.6657 121.952 81.1915 121.905 81.5488 121.34C81.7174 121.073 81.8097 120.779 81.882 120.472C82.2312 118.964 82.2312 117.441 82.0988 115.913C82.0426 115.268 81.9422 114.62 81.6893 114.011C81.4685 113.474 81.1875 112.897 80.5252 112.925C79.8749 112.953 79.7344 113.573 79.5819 114.094C79.2968 115.085 79.341 116.112 79.2607 117.086Z" fill="white"/>
<path fill-rule="evenodd" clip-rule="evenodd" d="M58.8802 110.191C59.1693 109.881 59.089 109.587 59.089 109.32C59.089 108.695 59.0689 108.075 59.0649 107.454C59.0609 106.889 59.085 106.344 58.7397 105.823C58.4788 105.429 58.6916 105.166 59.1572 105.214C59.3258 105.23 59.5185 105.254 59.651 105.341C60.791 106.105 62.1398 106.065 63.4163 106.304C63.605 106.34 63.8458 106.24 63.9662 106.447C64.1268 106.722 64.3677 106.674 64.6206 106.714C65.042 106.778 65.4515 106.913 65.8569 107.04C66.3748 107.203 66.4671 107.398 66.1419 107.836C65.9172 108.142 65.8609 108.437 65.9011 108.783C66.0255 109.877 66.1419 110.975 66.2664 112.073C66.2824 112.212 66.2985 112.352 66.3346 112.491C66.3627 112.598 66.4149 112.702 66.5514 112.71C66.6919 112.722 66.7481 112.618 66.7882 112.519C66.8324 112.415 66.8565 112.304 66.8886 112.197C67.0732 111.544 67.2499 110.888 67.4425 110.235C67.6473 109.551 67.6031 108.894 67.2418 108.27C67.1856 108.17 67.1254 108.075 67.0893 107.967C66.9729 107.605 67.1495 107.374 67.5028 107.478C67.9965 107.617 68.4862 107.78 68.9559 107.975C69.3654 108.142 69.4497 108.393 69.1446 108.687C68.7311 109.085 68.7472 109.507 68.8154 110.004C68.9479 110.955 69.0282 111.918 69.1365 112.873C69.1606 113.068 69.2048 113.259 69.261 113.45C69.2811 113.522 69.3573 113.569 69.4617 113.569C69.5741 113.569 69.6102 113.494 69.6504 113.426C69.6905 113.354 69.7146 113.267 69.7266 113.183C69.8631 112.197 70.1923 111.258 70.4331 110.295C70.5455 109.849 70.6499 109.411 70.2605 109.026C70.1401 108.906 70.0959 108.711 70.2124 108.556C70.3288 108.401 70.5134 108.413 70.686 108.461C70.8225 108.496 70.955 108.552 71.0875 108.608C71.7337 108.858 71.7739 108.946 71.3644 109.487C71.1276 109.801 71.0634 110.159 70.971 110.51C70.4211 112.618 69.8912 114.731 69.3493 116.844C69.253 117.226 69.1365 117.608 69.0241 117.986C68.98 118.133 68.8716 118.232 68.711 118.22C68.5585 118.212 68.4421 118.113 68.406 117.966C68.3618 117.803 68.3377 117.636 68.3217 117.464C68.1691 116.028 68.0206 114.592 67.8721 113.159C67.8681 113.104 67.8721 113.044 67.856 112.992C67.8119 112.809 67.8681 112.547 67.6111 112.515C67.3542 112.483 67.3261 112.73 67.274 112.913C67.1415 113.374 67.009 113.84 66.8846 114.305C66.6558 115.153 66.435 116 66.2062 116.848C66.1419 117.082 66.1419 117.417 65.7767 117.361C65.4997 117.317 65.4997 117.035 65.4876 116.808C65.3431 113.979 64.8895 111.182 64.6567 108.361C64.6366 108.106 64.6326 107.852 64.5122 107.617C64.4439 107.486 64.3396 107.382 64.183 107.422C64.0666 107.454 64.0184 107.573 64.0144 107.693C64.0104 107.892 64.0224 108.091 64.0144 108.285C64.0104 108.476 64.0465 108.735 63.7655 108.739C63.5327 108.739 63.4564 108.524 63.4203 108.321C63.3962 108.182 63.3842 108.039 63.3561 107.904C63.2196 107.259 62.8061 106.945 62.1398 106.972C61.8748 106.98 61.6781 107.08 61.6741 107.354C61.6581 108.262 61.6621 109.165 61.6661 110.072C61.6661 110.331 61.8267 110.49 62.0836 110.533C62.3084 110.569 62.473 110.482 62.5613 110.275C62.5974 110.195 62.6215 110.116 62.6576 110.04C62.7218 109.901 62.8222 109.805 62.9868 109.833C63.1594 109.861 63.2076 109.996 63.2076 110.148C63.2076 110.828 63.2076 111.504 63.1995 112.185C63.1995 112.332 63.1634 112.475 62.9828 112.495C62.8182 112.515 62.7138 112.407 62.6576 112.272C62.5894 112.089 62.5613 111.886 62.481 111.707C62.3967 111.512 62.2241 111.405 61.9993 111.425C61.7544 111.449 61.6621 111.628 61.6581 111.838C61.65 112.857 61.65 113.876 61.6621 114.894C61.6621 115.145 61.8347 115.316 62.0796 115.368C62.3284 115.423 62.5854 115.459 62.8423 115.471C63.3842 115.499 63.5247 115.376 63.6571 114.827C63.7334 114.516 63.6371 113.971 64.0666 114.015C64.5764 114.071 64.2954 114.608 64.3235 114.938C64.3556 115.332 64.3315 115.73 64.3235 116.128C64.3195 116.454 64.1348 116.597 63.8217 116.537C62.6737 116.319 61.5256 116.088 60.3775 115.861C60.1648 115.817 60.0163 115.702 59.9279 115.507C59.8637 115.36 59.7433 115.284 59.5907 115.348C58.9806 115.598 58.9244 115.113 58.804 114.755C58.1537 112.793 57.3749 110.876 56.837 108.874C56.7647 108.604 56.6564 108.337 56.552 108.075C56.5118 107.971 56.4235 107.868 56.3031 107.884C56.1305 107.9 56.0904 108.047 56.0783 108.194C56.0703 108.305 56.0743 108.421 56.0783 108.532C56.0984 110.06 56.1265 111.588 56.1385 113.116C56.1385 113.569 56.1265 114.019 56.4717 114.393C56.6042 114.536 56.6965 114.751 56.552 114.938C56.4155 115.121 56.1947 115.081 55.994 115.053C55.8254 115.029 55.6528 115.01 55.4922 114.954C55.1109 114.827 54.9624 114.544 55.2193 114.246C55.5846 113.824 55.5484 113.366 55.5484 112.889C55.5404 110.764 55.5364 108.644 55.5364 106.519C55.5364 106.085 55.5243 105.675 55.1872 105.337C55.0667 105.218 55.0226 105.031 55.1229 104.864C55.2273 104.685 55.4079 104.717 55.5806 104.74C55.6649 104.752 55.7491 104.784 55.8334 104.784C56.7126 104.764 57.0859 105.162 57.3026 106.041C57.6318 107.382 58.2018 108.663 58.6755 109.968C58.6996 110.04 58.7799 110.088 58.8842 110.203L58.8802 110.191ZM60.4177 110.832C60.4177 109.758 60.4177 108.687 60.4177 107.617C60.4177 107.394 60.4819 107.136 60.3334 106.961C60.1648 106.762 60.1969 106.32 59.8155 106.388C59.4302 106.455 59.5506 106.833 59.5506 107.092C59.5546 109.575 59.5667 112.057 59.5907 114.536C59.5907 114.791 59.4743 115.208 59.8597 115.22C60.1849 115.232 60.3334 114.862 60.3936 114.552C60.4337 114.361 60.4177 114.158 60.4177 113.963C60.4177 112.921 60.4177 111.878 60.4177 110.832Z" fill="white"/>
<path fill-rule="evenodd" clip-rule="evenodd" d="M25.3498 107.418C25.3498 108.238 25.3498 108.914 25.3498 109.591C25.3498 109.762 25.3177 109.945 25.109 109.984C24.9002 110.02 24.8079 109.873 24.7477 109.702C24.7196 109.622 24.7035 109.539 24.6794 109.459C24.551 109.089 24.3744 108.779 23.8967 108.85C23.2704 108.942 22.9854 109.205 22.9774 109.746C22.9614 110.593 22.9694 111.445 22.9694 112.292C22.9694 112.463 22.9814 112.65 23.1821 112.71C23.3989 112.774 23.5876 112.67 23.6839 112.487C23.7923 112.292 23.8485 112.069 23.9248 111.858C23.981 111.695 24.0331 111.508 24.2539 111.548C24.4225 111.576 24.4426 111.747 24.4426 111.886C24.4426 112.594 24.4426 113.299 24.4346 114.007C24.4346 114.15 24.3944 114.293 24.2258 114.341C24.0532 114.389 23.9569 114.281 23.8927 114.146C23.7642 113.868 23.6919 113.486 23.2624 113.629C22.8851 113.756 22.9654 114.126 22.9654 114.437C22.9654 115.312 22.9573 116.191 22.9654 117.067C22.9734 117.687 23.0497 117.735 23.6839 117.604C24.6835 117.397 24.852 117.202 25.0367 116.144C25.0849 115.877 24.9564 115.388 25.4181 115.451C25.7593 115.499 25.6147 115.929 25.6067 116.191C25.5626 118.093 25.8757 117.795 24.001 118.384C22.6442 118.809 21.2955 119.271 19.9427 119.716C19.8062 119.76 19.6737 119.816 19.5332 119.836C19.2321 119.876 19.0314 119.677 19.18 119.446C19.9306 118.264 19.473 116.959 19.6135 115.718C19.6817 115.121 19.485 115.029 18.899 115.22C17.9356 115.533 17.4512 116.21 17.4458 117.25C17.4458 117.675 17.4458 118.097 17.4378 118.523C17.4298 119.004 17.3936 119.466 17.791 119.868C18.0439 120.122 17.8994 120.413 17.5903 120.556C17.1247 120.771 16.651 120.974 16.1653 121.133C15.788 121.256 15.5351 121.002 15.7398 120.691C16.3299 119.804 16.1131 118.833 16.1372 117.89C16.1773 116.108 16.1773 114.325 16.1854 112.543C16.1854 112.264 16.2375 111.97 16.093 111.711C16.0248 111.588 15.9164 111.492 15.7518 111.508C15.5632 111.524 15.523 111.667 15.519 111.803C15.507 112.169 15.527 112.539 15.519 112.905C15.519 113.048 15.4668 113.195 15.2942 113.219C15.1136 113.247 15.0493 113.108 15.0092 112.968C14.957 112.777 14.9329 112.579 14.8767 112.392C14.8085 112.157 14.664 111.982 14.387 112.006C14.1421 112.026 13.9374 112.157 13.8611 112.38C13.8009 112.559 13.8089 112.766 13.8089 112.964C13.8089 115.201 13.821 117.433 13.825 119.669C13.825 120.146 13.7688 120.612 14.2264 120.986C14.4833 121.197 14.4271 121.555 14.0859 121.666C13.5159 121.853 12.97 122.092 12.42 122.33C12.2876 122.386 12.135 122.41 12.0307 122.271C11.9343 122.143 11.9464 121.98 12.0507 121.877C12.6248 121.332 12.5043 120.632 12.5043 119.963C12.5043 117.87 12.5043 115.777 12.4963 113.681C12.4963 113.541 12.5164 113.394 12.4963 113.259C12.4441 112.941 12.2233 112.837 11.9423 113.012C11.561 113.247 11.3322 113.597 11.2639 114.047C11.2318 114.27 11.2118 114.496 11.1636 114.715C11.1395 114.827 11.0672 114.93 10.9308 114.922C10.7943 114.918 10.726 114.815 10.726 114.699C10.726 114.079 10.722 113.454 10.7381 112.833C10.7421 112.614 10.8946 112.495 11.1074 112.423C12.4843 111.966 13.7849 111.309 15.1457 110.848C15.9004 110.593 16.7032 110.398 17.4699 110.124C17.6064 110.076 17.7549 110.06 17.8553 110.199C17.9476 110.323 17.9556 110.482 17.8753 110.601C17.0926 111.739 17.5622 113.02 17.4579 114.234C17.4217 114.64 17.6144 114.739 17.9918 114.644C18.0199 114.636 18.0439 114.62 18.072 114.612C19.6015 114.138 19.6135 114.118 19.6215 112.487C19.6215 112.061 19.6215 111.636 19.6296 111.214C19.6416 110.868 19.5854 110.561 19.3847 110.251C19.0274 109.702 19.1157 109.499 19.7701 109.28C20.5809 109.01 21.3998 108.763 22.2147 108.516C23.2183 108.214 24.2218 107.9 25.3378 107.434L25.3498 107.418ZM21.6326 113.955H21.6447C21.6447 112.825 21.6447 111.691 21.6447 110.561C21.6447 110.339 21.6246 110.112 21.5845 109.893C21.5644 109.789 21.4841 109.69 21.3476 109.69C21.2192 109.69 21.1429 109.766 21.0867 109.873C20.9623 110.108 20.9823 110.366 20.9823 110.621C20.9743 112.913 20.9623 115.201 20.9663 117.492C20.9663 117.795 20.8017 118.288 21.3035 118.28C21.6969 118.276 21.6286 117.811 21.6326 117.516C21.6447 116.33 21.6367 115.141 21.6367 113.955H21.6326Z" fill="white"/>
<path fill-rule="evenodd" clip-rule="evenodd" d="M42.4344 113.824C42.7997 113.633 42.8198 113.267 42.888 112.953C43.3456 110.907 43.7832 108.858 44.2368 106.817C44.313 106.479 44.3411 106.149 44.2368 105.815C44.1444 105.52 44.1846 105.246 44.4134 105.031C44.6101 104.844 44.7586 104.498 45.0757 104.561C45.425 104.633 45.3607 105.011 45.4129 105.274C45.9187 107.828 46.4928 110.37 46.8862 112.949C46.9504 113.374 47.1029 113.752 47.3679 114.106C47.7372 114.6 47.5927 114.866 46.9705 114.922C46.573 114.958 46.1716 115.002 45.7742 114.99C45.3166 114.974 45.1079 114.647 45.4049 114.313C45.999 113.645 45.4852 113.024 45.437 112.388C45.429 112.292 45.3327 112.185 45.2484 112.117C44.7586 111.747 43.6667 112.105 43.5062 112.702C43.3456 113.291 43.1088 113.872 43.6587 114.449C43.9558 114.763 43.7551 115.073 43.2453 115.077C42.0691 115.077 40.913 115.244 39.7449 115.336C38.8898 115.403 38.0469 115.491 37.2039 115.678C36.3448 115.869 36.3047 115.801 36.0839 114.986C35.827 114.031 35.534 113.084 35.253 112.133C35.2208 112.025 35.1807 111.918 35.1325 111.815C35.0844 111.711 35.0001 111.608 34.8837 111.62C34.711 111.636 34.6589 111.779 34.6589 111.926C34.6709 112.889 34.687 113.852 34.707 114.815C34.7151 115.053 34.9118 115.212 35.0121 115.411C35.2048 115.781 35.1084 116.004 34.707 116.108C34.3217 116.207 33.9243 116.279 33.5309 116.334C33.1054 116.398 32.8484 116.124 33.0813 115.817C33.5509 115.201 33.4225 114.528 33.4225 113.86C33.4185 111.878 33.4024 109.897 33.3904 107.915C33.3904 107.49 33.3823 107.096 33.0973 106.714C32.8003 106.312 32.9528 106.018 33.4425 105.922C34.1972 105.771 34.9599 105.636 35.7226 105.532C36.4452 105.433 36.9028 105.727 37.1958 106.411C37.7779 107.768 37.4367 109.423 36.3488 110.458C36.1923 110.609 36.0397 110.744 36.1802 110.955C36.8305 111.914 36.971 113.072 37.4447 114.094C37.5651 114.353 37.525 114.803 37.9826 114.711C38.368 114.636 38.3559 114.254 38.3559 113.943C38.36 111.536 38.3559 109.129 38.364 106.726C38.364 106.431 38.2476 106.185 38.1191 105.926C37.8823 105.441 37.9786 105.214 38.4804 105.146C39.5241 104.999 40.5758 104.896 41.6235 104.78C41.8323 104.756 41.9567 104.876 41.9607 105.071C41.9728 105.663 41.9768 106.26 41.9647 106.853C41.9647 106.988 41.8965 107.14 41.7118 107.14C41.5834 107.14 41.5111 107.044 41.467 106.937C41.3947 106.754 41.3385 106.563 41.2663 106.376C41.0615 105.85 40.7524 105.699 40.2025 105.811C39.8733 105.878 39.7007 106.041 39.7047 106.384C39.7047 107.263 39.7007 108.138 39.7047 109.018C39.7047 109.193 39.7368 109.364 39.9375 109.423C40.1623 109.491 40.3149 109.388 40.4393 109.205C40.5878 108.982 40.5878 108.516 40.925 108.608C41.3064 108.707 41.0816 109.137 41.1017 109.419C41.1258 109.813 41.1137 110.211 41.1137 110.609C41.1137 110.828 41.198 111.118 40.9331 111.206C40.644 111.297 40.5678 111.023 40.4875 110.808C40.4594 110.728 40.4273 110.649 40.3791 110.581C40.2908 110.454 40.1543 110.402 40.0058 110.434C39.8613 110.47 39.7529 110.565 39.7328 110.72C39.7168 110.832 39.7087 110.947 39.7087 111.059C39.7087 111.966 39.7007 112.869 39.7128 113.776C39.7208 114.349 39.8091 114.425 40.351 114.405C41.2382 114.373 41.475 114.166 41.6797 113.287C41.748 113 41.7038 112.487 42.045 112.523C42.5147 112.575 42.2056 113.068 42.2618 113.366C42.2859 113.502 42.2457 113.653 42.4424 113.82L42.4344 113.824ZM34.6428 108.488H34.6548C34.6548 108.914 34.6508 109.336 34.6548 109.762C34.6589 109.98 34.5986 110.239 34.8596 110.358C35.1446 110.49 35.3453 110.291 35.542 110.128C35.8431 109.877 35.9635 109.523 36.0277 109.161C36.124 108.604 36.1 108.035 36.0478 107.47C36.0237 107.211 35.9073 106.98 35.7588 106.774C35.5701 106.511 35.3011 106.451 35.0001 106.539C34.699 106.626 34.6308 106.853 34.6348 107.132C34.6428 107.581 34.6348 108.035 34.6348 108.488H34.6428ZM44.5659 108.329C44.1083 109.272 44.016 110.128 43.9277 110.963C43.8915 111.305 44.3452 111.238 44.6181 111.234C44.879 111.234 45.2002 111.198 45.148 110.852C45.0316 110.064 44.9352 109.264 44.5659 108.329Z" fill="white"/>
<path fill-rule="evenodd" clip-rule="evenodd" d="M110.138 126.91C110.138 125.804 110.138 124.702 110.138 123.596C110.138 123.397 110.138 123.198 110.126 123.003C110.114 122.792 110.029 122.617 109.797 122.565C109.536 122.506 109.359 122.645 109.227 122.844C109.058 123.09 109.082 123.389 109.018 123.659C108.99 123.779 108.91 123.882 108.793 123.886C108.629 123.89 108.528 123.767 108.524 123.612C108.52 122.991 108.516 122.366 108.544 121.746C108.552 121.535 108.733 121.491 108.926 121.535C110.202 121.829 111.515 121.976 112.775 122.291C114.108 122.621 115.437 122.816 116.793 122.919C117.066 122.939 117.243 123.007 117.247 123.289C117.263 123.882 117.271 124.479 117.275 125.072C117.275 125.219 117.227 125.37 117.058 125.39C116.898 125.41 116.793 125.291 116.749 125.147C116.673 124.905 116.601 124.662 116.541 124.415C116.452 124.037 116.199 123.846 115.846 123.739C115.188 123.544 114.959 123.707 114.951 124.403C114.947 125.167 114.959 125.931 114.967 126.695C114.967 126.962 115.003 127.22 115.3 127.312C115.617 127.407 115.766 127.192 115.882 126.946C115.918 126.87 115.954 126.791 115.999 126.719C116.067 126.612 116.175 126.564 116.288 126.624C116.348 126.655 116.416 126.755 116.412 126.822C116.368 127.531 116.388 128.235 116.428 128.939C116.436 129.047 116.396 129.178 116.272 129.21C116.099 129.253 116.003 129.118 115.946 128.995C115.866 128.816 115.834 128.613 115.754 128.434C115.661 128.235 115.485 128.135 115.264 128.183C115.071 128.227 114.991 128.386 114.991 128.565C114.991 129.639 114.991 130.718 115.007 131.792C115.007 132.007 115.156 132.162 115.372 132.21C115.621 132.265 115.874 132.329 116.131 132.349C116.649 132.389 116.834 132.206 116.99 131.617C117.074 131.299 116.93 130.714 117.448 130.789C117.821 130.845 117.616 131.37 117.624 131.692C117.636 132.114 117.624 132.54 117.612 132.966C117.604 133.284 117.44 133.431 117.115 133.383C115.987 133.208 114.855 133.049 113.731 132.858C113.261 132.779 113.161 132.544 113.454 132.142C113.719 131.784 113.739 131.418 113.735 131.02C113.727 128.784 113.723 126.548 113.715 124.312C113.715 124.228 113.719 124.141 113.711 124.057C113.678 123.779 113.666 123.397 113.329 123.397C112.888 123.397 113.1 123.815 113.06 124.061C113.02 124.296 113.161 124.666 112.831 124.694C112.482 124.722 112.55 124.344 112.526 124.109C112.49 123.759 112.374 123.448 112.129 123.194C112.008 123.067 111.86 122.959 111.679 123.003C111.479 123.051 111.451 123.234 111.446 123.409C111.442 123.576 111.446 123.747 111.446 123.918C111.446 126.07 111.446 128.219 111.446 130.372C111.446 130.881 111.398 131.394 111.804 131.812C111.92 131.935 111.96 132.126 111.844 132.285C111.727 132.448 111.543 132.425 111.374 132.389C110.848 132.265 110.294 132.261 109.801 132.019C109.672 131.955 109.56 131.871 109.407 131.943C108.717 132.273 108.139 131.8 107.529 131.641C107.147 131.541 107.123 131.155 107.332 130.873C107.922 130.081 107.372 129.357 107.216 128.621C107.151 128.322 106.156 128.056 105.831 128.171C105.718 128.211 105.606 128.279 105.586 128.39C105.473 129.035 105.064 129.683 105.602 130.332C105.754 130.515 105.843 130.738 105.662 130.948C105.509 131.127 105.293 131.044 105.1 131C104.935 130.964 104.763 130.921 104.61 130.853C104.205 130.674 104.096 130.403 104.385 130.057C104.683 129.703 104.775 129.305 104.855 128.891C105.265 126.723 105.658 124.551 106.059 122.378C106.112 122.092 106.071 121.813 105.983 121.543C105.883 121.236 105.983 120.986 106.22 120.783C106.409 120.62 106.577 120.369 106.874 120.468C107.143 120.556 107.099 120.834 107.139 121.049C107.645 123.89 108.147 126.735 108.657 129.576C108.769 130.184 108.825 130.813 109.247 131.326C109.536 131.681 109.668 131.669 109.933 131.283C110.126 131.008 110.134 130.702 110.13 130.387C110.13 129.226 110.13 128.068 110.13 126.906H110.138V126.91ZM106.34 124.34C106.075 125.171 105.827 125.999 105.798 126.862C105.786 127.224 106.537 127.578 106.874 127.415C107.023 127.344 107.071 127.216 107.035 127.065C106.806 126.17 106.794 125.223 106.34 124.344V124.34Z" fill="white"/>
<path fill-rule="evenodd" clip-rule="evenodd" d="M90.1674 119.872C90.625 119.76 90.7294 119.49 90.8659 119.243C91.0304 118.945 91.187 118.642 91.3757 118.36C91.6446 117.966 91.8493 117.588 91.5001 117.126C91.3997 116.995 91.3797 116.792 91.5523 116.673C91.6807 116.585 91.8253 116.649 91.9537 116.716C92.0822 116.784 92.2066 116.844 92.3351 116.907C93.2302 117.361 93.2262 117.468 92.4836 118.173C91.9457 118.682 91.6245 119.366 91.2111 119.971C91.0947 120.138 91.1549 120.353 91.2111 120.548C91.7891 122.502 92.3632 124.459 92.9452 126.409C93.0255 126.675 93.1941 126.918 93.2744 127.185C93.3587 127.463 93.158 127.638 92.889 127.519C92.3953 127.3 91.9176 127.045 91.4359 126.795C91.1268 126.631 91.0385 126.373 91.2352 126.09C91.476 125.736 91.3757 125.406 91.2753 125.04C91.0987 124.415 90.9702 123.775 90.8217 123.142C90.7173 122.681 90.621 122.211 90.332 121.829C90.0389 121.897 90.1112 122.1 90.1072 122.251C90.1072 123.015 90.1272 123.779 90.1192 124.543C90.1192 124.956 90.2597 125.315 90.4564 125.665C90.5246 125.792 90.5527 125.935 90.4363 126.059C90.3199 126.182 90.1794 126.166 90.0429 126.11C89.0996 125.708 88.1563 125.311 87.2169 124.897C86.9199 124.765 86.8838 124.459 86.8155 124.185C86.5145 122.947 86.2214 121.71 85.9123 120.472C85.8481 120.218 85.8762 119.776 85.5189 119.828C85.1657 119.88 85.3303 120.301 85.3262 120.56C85.3182 121.24 85.3624 121.917 85.3503 122.597C85.3423 123.015 85.4547 123.373 85.6915 123.707C85.7758 123.822 85.7919 123.974 85.6915 124.101C85.5832 124.236 85.4427 124.2 85.3062 124.149C84.9048 124.002 84.4993 123.866 84.1059 123.695C83.6082 123.48 83.5319 123.301 83.845 122.868C84.0818 122.541 84.13 122.203 84.13 121.833C84.134 119.74 84.138 117.643 84.1501 115.551C84.1501 115.037 84.1702 114.532 83.8249 114.09C83.7206 113.955 83.6684 113.78 83.7928 113.621C83.9253 113.458 84.1019 113.502 84.2625 113.569C85.0533 113.896 85.8601 114.186 86.6228 114.564C87.3735 114.934 87.8231 115.575 88.0077 116.402C88.1523 117.047 88.2085 117.687 88.0961 118.34C87.9957 118.917 87.8271 119.45 87.1367 119.597C86.8998 119.645 86.7794 119.8 86.8918 120.035C87.4939 121.296 87.7147 122.677 88.1643 123.99C88.2486 124.236 88.2406 124.642 88.634 124.57C88.9952 124.503 88.919 124.129 88.919 123.858C88.927 121.567 88.919 119.275 88.935 116.979C88.935 116.537 88.7905 116.151 88.6621 115.746C88.5416 115.36 88.7102 115.209 89.1036 115.352C89.505 115.495 89.8944 115.678 90.2718 115.877C90.5648 116.032 90.6812 116.331 90.4684 116.593C90.1032 117.043 90.1634 117.544 90.1634 118.049C90.1634 118.634 90.1634 119.219 90.1634 119.876L90.1674 119.872ZM85.3664 116.828H85.3543C85.3543 117.222 85.3905 117.624 85.3463 118.014C85.2821 118.547 85.6113 118.825 85.9645 118.877C86.3178 118.929 86.5586 118.718 86.6911 118.201C86.8958 117.385 86.8276 116.573 86.5827 115.773C86.4944 115.487 86.3097 115.28 86.0568 115.129C85.6434 114.89 85.3985 115.002 85.3744 115.471C85.3503 115.921 85.3704 116.374 85.3704 116.828H85.3664Z" fill="white"/>
<path fill-rule="evenodd" clip-rule="evenodd" d="M130.253 128.657C130.253 127.666 130.253 126.675 130.253 125.689C130.253 125.151 130.273 124.634 129.924 124.149C129.703 123.838 129.848 123.616 130.237 123.576C130.634 123.536 131.036 123.524 131.433 123.54C131.879 123.56 132.056 123.803 131.803 124.133C131.437 124.618 131.486 125.135 131.481 125.669C131.469 127.734 131.461 129.799 131.449 131.86C131.449 132.285 131.469 132.679 131.718 133.073C132.027 133.562 131.871 133.821 131.305 133.841C130.277 133.881 129.254 133.901 128.226 133.901C127.584 133.901 127.487 133.698 127.812 133.129C128.057 132.699 127.941 131.549 127.58 131.235C127.166 130.877 126.648 131.096 126.179 131.088C125.866 131.088 125.793 131.374 125.725 131.629C125.689 131.764 125.657 131.903 125.613 132.039C125.456 132.492 125.424 132.878 125.862 133.256C126.219 133.562 126.07 133.853 125.593 133.921C125.565 133.921 125.536 133.928 125.508 133.921C125.155 133.877 124.718 134.096 124.465 133.753C124.204 133.399 124.609 133.141 124.742 132.85C125.083 132.09 125.171 131.271 125.36 130.475C125.697 129.074 125.974 127.658 126.291 126.25C126.367 125.915 126.428 125.601 126.343 125.251C126.219 124.742 126.484 124.208 126.933 123.986C127.259 123.822 127.403 124.013 127.475 124.304C127.628 124.937 127.784 125.569 127.933 126.202C128.395 128.183 128.852 130.165 129.322 132.146C129.402 132.484 129.394 133.001 129.908 132.914C130.329 132.842 130.217 132.369 130.217 132.047C130.229 130.917 130.221 129.787 130.221 128.653H130.253V128.657ZM126.721 127.503C126.339 128.255 126.299 128.899 126.171 129.512C126.123 129.747 125.982 130.049 126.287 130.196C126.572 130.34 126.901 130.3 127.202 130.192C127.347 130.141 127.423 129.994 127.383 129.846C127.186 129.13 127.114 128.374 126.721 127.503Z" fill="white"/>
<path fill-rule="evenodd" clip-rule="evenodd" d="M134.167 130.602C134.207 131.577 134.019 132.353 134.577 133.025C134.749 133.232 134.561 133.483 134.312 133.539C133.87 133.642 133.417 133.722 132.963 133.761C132.594 133.793 132.381 133.527 132.582 133.228C133.087 132.472 132.927 131.649 132.931 130.845C132.947 129.007 132.931 127.169 132.935 125.33C132.935 124.933 132.915 124.566 132.666 124.208C132.397 123.815 132.521 123.592 133.007 123.512C133.71 123.397 134.42 123.305 135.127 123.23C135.954 123.142 136.588 123.532 136.789 124.344C137.037 125.35 137.037 126.365 136.548 127.324C136.459 127.495 136.327 127.646 136.214 127.809C136.054 128.04 135.616 128.056 135.636 128.37C135.653 128.625 135.897 128.86 135.994 129.118C136.243 129.779 136.475 130.447 136.7 131.119C136.861 131.601 136.993 132.082 137.306 132.512C137.583 132.89 137.455 133.125 136.997 133.248C136.941 133.264 136.885 133.264 136.829 133.276C135.837 133.471 135.805 133.467 135.516 132.488C135.259 131.621 135.038 130.745 134.801 129.874C134.757 129.711 134.709 129.548 134.645 129.389C134.605 129.285 134.529 129.186 134.4 129.19C134.215 129.194 134.171 129.341 134.167 129.48C134.159 129.934 134.167 130.383 134.167 130.61V130.602ZM134.131 126.094C134.131 126.576 134.107 127.057 134.139 127.535C134.167 127.968 134.496 128.112 134.858 127.877C135.159 127.682 135.315 127.372 135.4 127.041C135.572 126.349 135.624 125.649 135.448 124.944C135.4 124.757 135.331 124.563 135.231 124.399C135.099 124.173 134.906 123.99 134.609 124.049C134.284 124.117 134.131 124.336 134.131 124.658C134.131 125.139 134.131 125.617 134.131 126.098V126.094Z" fill="white"/>
<path fill-rule="evenodd" clip-rule="evenodd" d="M32.0454 106.236C32.0855 107.12 32.1216 107.9 32.1578 108.679C32.1658 108.827 32.1297 108.978 31.9731 109.026C31.7844 109.085 31.6279 108.99 31.5677 108.811C31.4312 108.409 31.3268 107.995 31.1783 107.601C30.9976 107.128 30.6886 106.937 30.2791 106.98C29.8937 107.02 29.6689 107.279 29.5044 107.581C29.2635 108.031 29.1029 108.516 29.0146 109.022C28.6814 110.911 28.7738 112.797 29.111 114.675C29.1912 115.121 29.3598 115.551 29.6127 115.929C29.9861 116.494 30.5119 116.506 30.9414 115.984C31.1301 115.754 31.2024 115.479 31.2064 115.197C31.2144 114.548 31.1984 113.896 31.1984 113.247C31.1984 112.909 30.9936 112.686 30.7969 112.435C30.4919 112.049 30.5962 111.775 31.0659 111.6C31.1462 111.572 31.2345 111.564 31.3148 111.54C32.4628 111.23 32.4066 111.234 32.4668 112.388C32.511 113.247 32.3264 114.142 32.7478 114.974C32.8723 115.216 32.6997 115.467 32.5471 115.678C32.0052 116.414 31.2987 116.919 30.4035 117.13C29.7171 117.289 29.1029 117.094 28.6012 116.593C28.0392 116.036 27.702 115.356 27.5735 114.584C27.2965 112.925 27.2845 111.254 27.5936 109.602C27.8224 108.397 28.272 107.267 29.3398 106.495C29.8215 106.145 30.3433 106.026 30.8612 106.288C31.2546 106.487 31.5998 106.487 32.0494 106.236H32.0454Z" fill="white"/>
<path fill-rule="evenodd" clip-rule="evenodd" d="M96.2809 127.041C96.2809 126.703 96.2728 126.361 96.2849 126.023C96.2849 125.955 96.3611 125.864 96.4254 125.832C96.5338 125.784 96.6462 125.828 96.7304 125.919C96.8509 126.051 96.8709 126.222 96.9151 126.389C97.0155 126.771 97.1238 127.153 97.2242 127.535C97.3005 127.817 97.4651 128.04 97.6858 128.231C98.288 128.748 98.8419 128.597 99.0025 127.829C99.139 127.181 99.0988 126.536 98.7576 125.935C98.4606 125.414 98.0832 124.952 97.7099 124.487C96.7024 123.226 96.3009 121.793 96.4735 120.198C96.5297 119.649 96.7144 119.151 97.0797 118.73C97.5253 118.212 97.9468 118.173 98.4927 118.578C98.874 118.861 99.0788 119.35 99.5846 119.494C99.6448 119.51 99.705 119.629 99.713 119.701C99.7652 120.321 99.7853 120.942 99.705 121.563C99.6929 121.638 99.6448 121.714 99.5404 121.726C99.3959 121.742 99.3196 121.65 99.2995 121.543C99.2193 121.185 99.1631 120.819 99.0908 120.46C99.0266 120.122 98.9262 119.804 98.6492 119.565C98.1836 119.159 97.7059 119.283 97.5614 119.888C97.4209 120.484 97.4811 121.077 97.8504 121.594C98.0993 121.937 98.3682 122.271 98.6452 122.589C99.8334 123.954 100.311 125.517 100.082 127.308C100.018 127.829 99.8455 128.299 99.5725 128.732C98.9985 129.655 98.2318 129.747 97.4691 128.979C97.2122 128.72 97.0355 128.398 96.5859 128.402C96.3611 128.402 96.2688 128.183 96.2648 127.968C96.2568 127.658 96.2648 127.348 96.2648 127.033C96.2688 127.033 96.2728 127.033 96.2768 127.033L96.2809 127.041Z" fill="white"/>
<path fill-rule="evenodd" clip-rule="evenodd" d="M122.903 123.667C123.417 123.667 123.927 123.671 124.44 123.667C124.721 123.663 124.87 123.771 124.874 124.057C124.882 124.594 124.886 125.131 124.894 125.669C124.894 125.792 124.842 125.903 124.725 125.931C124.565 125.971 124.452 125.872 124.412 125.72C124.36 125.529 124.344 125.33 124.288 125.139C124.179 124.75 123.919 124.523 123.509 124.451C122.734 124.316 122.538 124.471 122.538 125.259C122.538 125.995 122.538 126.727 122.542 127.463C122.542 127.726 122.558 128 122.867 128.08C123.188 128.163 123.417 128.012 123.545 127.71C123.589 127.606 123.617 127.491 123.682 127.399C123.722 127.34 123.814 127.284 123.882 127.284C124.011 127.284 124.083 127.387 124.087 127.507C124.095 128.239 124.099 128.975 124.099 129.707C124.099 129.834 124.015 129.93 123.902 129.954C123.742 129.986 123.638 129.886 123.581 129.739C123.509 129.556 123.457 129.361 123.365 129.19C123.264 129.003 123.092 128.903 122.867 128.935C122.622 128.971 122.538 129.146 122.538 129.357C122.538 130.431 122.55 131.505 122.562 132.576C122.562 132.85 122.811 133.013 122.919 133.236C123.104 133.61 122.971 133.853 122.558 133.861C122.132 133.869 121.699 133.853 121.277 133.793C120.856 133.737 120.699 133.463 120.944 133.141C121.329 132.631 121.285 132.082 121.281 131.521C121.273 129.516 121.261 127.511 121.253 125.502C121.253 125.02 121.241 124.563 120.92 124.133C120.667 123.795 120.832 123.564 121.273 123.548C121.815 123.532 122.357 123.548 122.895 123.548C122.895 123.584 122.895 123.62 122.895 123.655L122.903 123.667Z" fill="white"/>
<path fill-rule="evenodd" clip-rule="evenodd" d="M77.6548 112.28C77.6467 111.978 77.446 111.799 77.3176 111.58C77.2413 111.453 77.1972 111.309 77.2815 111.178C77.3979 110.995 77.5745 111.055 77.7431 111.11C77.9599 111.186 78.1847 111.242 78.3854 111.341C78.7025 111.496 78.7988 111.799 78.57 112.041C78.0321 112.614 77.9679 113.374 77.6789 114.043C77.3979 114.691 77.2052 115.376 76.9683 116.044C76.8519 116.366 76.7917 116.697 76.7957 117.043C76.7997 117.723 76.7877 118.399 76.7877 119.08C76.7877 119.613 76.7235 120.158 77.1369 120.608C77.2734 120.755 77.3055 120.986 77.1771 121.165C77.0165 121.391 76.8158 121.228 76.6432 121.157C76.2458 120.998 75.8484 120.834 75.463 120.651C75.0455 120.452 74.9412 120.19 75.2342 119.852C75.5313 119.51 75.5272 119.147 75.5594 118.75C75.6878 117.059 75.4269 115.427 74.8689 113.828C74.4434 112.602 74.2788 111.289 73.6887 110.112C73.6125 109.961 73.5844 109.777 73.7208 109.638C73.8734 109.483 74.034 109.598 74.1905 109.662C74.6401 109.845 75.0937 110.012 75.5353 110.211C76.1013 110.466 76.1615 110.653 75.8163 111.162C75.6798 111.365 75.5995 111.54 75.6597 111.787C75.8684 112.638 76.0611 113.494 76.2659 114.349C76.298 114.484 76.3502 114.62 76.4264 114.739C76.5188 114.878 76.6994 114.91 76.7636 114.751C77.0727 113.931 77.3537 113.104 77.6467 112.276L77.6548 112.28Z" fill="white"/>
<path fill-rule="evenodd" clip-rule="evenodd" d="M49.7842 109.65C49.7842 110.752 49.7882 111.854 49.7842 112.957C49.7842 113.386 49.8203 113.772 50.1013 114.15C50.4746 114.655 50.31 114.906 49.6637 114.906C49.2663 114.906 48.8609 114.902 48.4675 114.846C48.1062 114.795 47.9416 114.496 48.1704 114.238C48.6923 113.649 48.5719 112.972 48.5759 112.304C48.5799 110.267 48.5759 108.234 48.5759 106.197C48.5759 106.085 48.5799 105.97 48.5759 105.858C48.5638 105.624 48.5237 105.393 48.2467 105.333C47.9617 105.27 47.7449 105.405 47.5884 105.628C47.4037 105.894 47.4238 106.221 47.3676 106.523C47.3355 106.69 47.2833 106.889 47.0706 106.877C46.8498 106.865 46.8578 106.654 46.8498 106.487C46.8498 106.459 46.8498 106.431 46.8498 106.404C46.8698 105.811 46.6892 105.091 46.9622 104.661C47.2953 104.144 48.05 104.621 48.6241 104.565C49.4149 104.49 50.2137 104.705 51.0125 104.565C51.2012 104.534 51.3738 104.617 51.3818 104.82C51.4059 105.441 51.4059 106.061 51.4139 106.682C51.4139 106.809 51.3336 106.905 51.2172 106.925C51.0607 106.953 50.9362 106.873 50.8961 106.714C50.86 106.579 50.8519 106.435 50.8319 106.296C50.8078 106.157 50.7998 106.014 50.7556 105.878C50.6512 105.548 50.4264 105.321 50.0652 105.385C49.736 105.445 49.7641 105.743 49.7641 106.002V109.65H49.7801H49.7842Z" fill="white"/>
<path fill-rule="evenodd" clip-rule="evenodd" d="M103.033 125.279C103.033 126.325 103.037 127.372 103.033 128.418C103.033 128.927 103.033 129.413 103.354 129.874C103.611 130.236 103.434 130.463 102.992 130.423C102.74 130.399 102.487 130.34 102.234 130.284C101.351 130.085 101.319 130.025 101.696 129.178C101.804 128.931 101.796 128.681 101.796 128.43C101.792 126.11 101.788 123.795 101.78 121.475C101.78 121.364 101.78 121.248 101.78 121.137C101.768 120.878 101.64 120.711 101.375 120.667C101.126 120.628 100.913 120.703 100.805 120.938C100.724 121.117 100.68 121.312 100.62 121.499C100.576 121.634 100.528 121.785 100.351 121.769C100.166 121.754 100.15 121.594 100.15 121.459C100.15 121.01 100.158 120.556 100.158 120.102C100.158 119.712 100.371 119.617 100.716 119.697C101.355 119.844 101.993 119.995 102.631 120.142C103.157 120.265 103.671 120.445 104.221 120.464C104.442 120.472 104.63 120.56 104.642 120.799C104.67 121.391 104.678 121.98 104.682 122.577C104.682 122.689 104.61 122.8 104.47 122.776C104.397 122.764 104.301 122.704 104.281 122.641C104.221 122.486 104.193 122.319 104.165 122.151C104.12 121.897 104.048 121.654 103.884 121.451C103.719 121.252 103.53 121.053 103.237 121.145C102.936 121.24 103.025 121.503 103.025 121.718C103.025 122.907 103.025 124.093 103.025 125.279H103.041H103.033Z" fill="white"/>
</svg>
