<svg width="61" height="60" viewBox="0 0 61 60" fill="none" xmlns="http://www.w3.org/2000/svg">
<g clip-path="url(#clip0_1244_1346)">
<path d="M29.0966 45.2793C29.0384 45.2559 28.9803 45.2302 28.9221 45.2139C28.8477 45.1952 28.7686 45.1905 28.7174 45.2559C28.6663 45.3237 28.6872 45.4102 28.7384 45.4616C28.9082 45.6323 28.8593 45.8239 28.8128 46.0203C28.7081 46.441 28.5662 46.8547 28.5081 47.2871C28.5034 47.3222 28.4941 47.3619 28.4732 47.3923C28.4569 47.4227 28.4429 47.4554 28.3941 47.4554C28.3476 47.4554 28.315 47.4344 28.3057 47.404C28.2825 47.3198 28.2615 47.2357 28.2522 47.1515C28.2057 46.7332 28.1685 46.3101 28.1126 45.8917C28.0824 45.6743 28.0778 45.4897 28.2545 45.3144C28.3871 45.1858 28.3499 45.076 28.1731 45.0035C27.9684 44.917 27.7568 44.8446 27.5428 44.7838C27.3892 44.7394 27.3125 44.8399 27.3637 44.9988C27.3799 45.0456 27.4055 45.09 27.4311 45.1321C27.587 45.4079 27.6056 45.6954 27.5195 45.9945C27.4358 46.2797 27.359 46.5672 27.2776 46.8547C27.2636 46.9014 27.2543 46.9529 27.2357 46.9973C27.2171 47.0393 27.1939 47.0861 27.1311 47.0814C27.0706 47.0767 27.0473 47.0323 27.0357 46.9856C27.0217 46.9248 27.0148 46.864 27.0078 46.8033C26.9543 46.3218 26.9031 45.8403 26.8496 45.3588C26.831 45.2045 26.8566 45.076 26.9543 44.9427C27.0938 44.7511 27.0543 44.6646 26.831 44.5945C26.6542 44.5384 26.4774 44.4799 26.296 44.4519C26.1867 44.4355 26.082 44.4542 26.0122 44.335C25.9611 44.2439 25.8564 44.2883 25.775 44.2719C25.2237 44.1667 24.6399 44.1854 24.1444 43.8489C24.0886 43.8091 24.0048 43.8021 23.9327 43.7928C23.7304 43.7717 23.6397 43.8862 23.7513 44.0592C23.9002 44.2883 23.8885 44.5267 23.8932 44.7744C23.8932 45.0479 23.9048 45.3214 23.9048 45.5925C23.9048 45.7094 23.9374 45.8379 23.8118 45.9735C23.7653 45.9221 23.7327 45.9011 23.7211 45.8683C23.5164 45.298 23.2698 44.7347 23.1256 44.1457C23.0326 43.76 22.8721 43.5847 22.4906 43.5917C22.4557 43.5917 22.4185 43.5777 22.3813 43.573C22.3068 43.5614 22.2277 43.5497 22.1835 43.6268C22.1417 43.6993 22.1603 43.7811 22.2115 43.8348C22.358 43.9844 22.365 44.1644 22.365 44.3537C22.365 45.2863 22.365 46.2166 22.3673 47.1492C22.3673 47.3572 22.3859 47.5582 22.2254 47.7429C22.1161 47.8738 22.1789 47.9977 22.344 48.0538C22.4138 48.0771 22.4883 48.0841 22.5627 48.0958C22.6488 48.1099 22.7441 48.1262 22.8046 48.0444C22.8651 47.9626 22.8255 47.8691 22.7697 47.8037C22.6208 47.64 22.6278 47.4437 22.6255 47.245C22.6208 46.5742 22.6092 45.9057 22.5999 45.2349C22.5999 45.1835 22.5999 45.1344 22.5999 45.0853C22.6046 45.0199 22.6232 44.9568 22.6976 44.9474C22.7511 44.9427 22.7883 44.9871 22.8046 45.0316C22.8511 45.1484 22.8976 45.263 22.9279 45.3822C23.1628 46.2587 23.5001 47.1001 23.7815 47.9626C23.8327 48.1192 23.8583 48.3319 24.1211 48.2221C24.1886 48.194 24.2398 48.2291 24.2677 48.2922C24.3072 48.3787 24.3724 48.4301 24.4631 48.4488C24.9609 48.5469 25.4563 48.6475 25.9541 48.7433C26.0913 48.7713 26.1681 48.7082 26.1727 48.5633C26.175 48.3903 26.1867 48.215 26.1727 48.0421C26.1588 47.8972 26.282 47.6611 26.0611 47.6354C25.875 47.6167 25.9192 47.8551 25.8866 47.9907C25.8285 48.2314 25.768 48.2852 25.5331 48.2735C25.4237 48.2665 25.3121 48.2524 25.2028 48.2267C25.0958 48.2034 25.0237 48.1286 25.0213 48.0187C25.0144 47.5723 25.0167 47.1235 25.019 46.6771C25.019 46.5836 25.0609 46.5064 25.1679 46.4947C25.2632 46.4854 25.3377 46.5321 25.3749 46.6186C25.4098 46.6981 25.4214 46.7846 25.4493 46.8664C25.4726 46.9272 25.5191 46.9716 25.5912 46.9646C25.6703 46.9552 25.6843 46.8921 25.6843 46.8267C25.6866 46.5298 25.6889 46.2306 25.6866 45.9338C25.6866 45.866 25.6656 45.8076 25.5912 45.7959C25.5191 45.7842 25.4772 45.8263 25.4493 45.887C25.433 45.9221 25.4214 45.9572 25.4075 45.9922C25.3679 46.0834 25.2981 46.1231 25.2004 46.1067C25.0888 46.088 25.019 46.0179 25.019 45.9034C25.019 45.506 25.0167 45.1087 25.0213 44.7113C25.0237 44.5921 25.1097 44.5477 25.2237 44.5454C25.5121 44.5337 25.6912 44.6716 25.7494 44.9544C25.761 45.0152 25.768 45.076 25.7773 45.1391C25.7936 45.2279 25.8261 45.3261 25.9262 45.3237C26.0471 45.3237 26.0308 45.2092 26.0355 45.1251C26.0355 45.0386 26.0332 44.9521 26.0355 44.8656C26.0355 44.8142 26.0564 44.7604 26.1076 44.7464C26.175 44.7277 26.2216 44.7744 26.2518 44.8305C26.303 44.9334 26.3053 45.0456 26.3146 45.1578C26.4146 46.3942 26.6123 47.6237 26.6752 48.8625C26.6798 48.963 26.6798 49.0869 26.8008 49.1056C26.9589 49.1289 26.9589 48.984 26.9868 48.8789C27.0869 48.5072 27.1822 48.1356 27.2799 47.7616C27.3334 47.5582 27.3892 47.3549 27.4497 47.1515C27.473 47.0721 27.4846 46.9646 27.5963 46.9762C27.7056 46.9903 27.6823 47.1071 27.7009 47.1866C27.7056 47.21 27.7033 47.2357 27.7079 47.2591C27.773 47.8878 27.8358 48.5189 27.9033 49.1476C27.9103 49.2201 27.9219 49.2949 27.9382 49.3674C27.9568 49.4328 28.0057 49.4749 28.0708 49.4795C28.1406 49.4842 28.1871 49.4398 28.208 49.3744C28.2569 49.2084 28.308 49.0425 28.3499 48.8742C28.5848 47.9486 28.8151 47.0206 29.0524 46.0951C29.0919 45.9408 29.1198 45.7842 29.2222 45.6486C29.399 45.4102 29.3803 45.3728 29.1012 45.263L29.0966 45.2793ZM24.4677 47.8878C24.4421 48.0234 24.377 48.187 24.2351 48.1823C24.0676 48.1753 24.1188 47.993 24.1188 47.8831C24.1095 46.7939 24.1049 45.7047 24.1025 44.6155C24.1025 44.501 24.0514 44.3374 24.2165 44.3046C24.3817 44.2743 24.3677 44.4706 24.4398 44.5571C24.5049 44.6342 24.477 44.7464 24.477 44.8446C24.477 45.3167 24.477 45.7865 24.477 46.2563C24.477 46.7261 24.477 47.1726 24.477 47.6307C24.477 47.7172 24.484 47.806 24.4677 47.8878ZM9.32746 48.2805C9.12742 48.2524 9.18092 48.4675 9.16231 48.5843C9.0809 49.0495 9.00879 49.1336 8.57615 49.2248C8.304 49.2809 8.26911 49.2598 8.26678 48.9887C8.26213 48.603 8.26678 48.2174 8.26678 47.8341C8.26678 47.6985 8.23189 47.5349 8.39472 47.4811C8.5808 47.4157 8.61337 47.5863 8.66687 47.7078C8.69245 47.7639 8.73665 47.813 8.80875 47.792C8.88086 47.7709 8.89714 47.7078 8.89947 47.6447C8.9018 47.3339 8.90412 47.0253 8.9018 46.7145C8.9018 46.6513 8.89249 46.5789 8.82038 46.5649C8.72502 46.5485 8.70176 46.6303 8.6785 46.7028C8.64593 46.7963 8.62034 46.8944 8.57382 46.9786C8.53195 47.058 8.45054 47.1048 8.35517 47.0767C8.26911 47.051 8.26446 46.9669 8.26446 46.8944C8.26446 46.5205 8.26213 46.1488 8.26678 45.7772C8.26911 45.5411 8.39472 45.4266 8.66454 45.3845C8.87156 45.3518 8.94832 45.4897 9.00414 45.651C9.0181 45.686 9.02275 45.7234 9.03438 45.7585C9.05764 45.8333 9.09951 45.8987 9.19023 45.8824C9.28094 45.866 9.2949 45.7865 9.2949 45.7094C9.2949 45.4149 9.2949 45.118 9.2949 44.7557C8.81341 44.9591 8.37844 45.0993 7.94346 45.2302C7.5899 45.3378 7.23634 45.4476 6.88511 45.5668C6.60366 45.6626 6.56412 45.7538 6.71763 45.9922C6.8037 46.1278 6.82696 46.2633 6.82463 46.4153C6.81766 46.6023 6.82231 46.7869 6.81998 46.9739C6.81766 47.6891 6.813 47.6985 6.15008 47.9065C6.13612 47.9112 6.12682 47.9182 6.11519 47.9205C5.95004 47.9626 5.87095 47.9205 5.88491 47.7406C5.93143 47.2076 5.72674 46.6467 6.06634 46.1465C6.10123 46.0951 6.09891 46.0249 6.05704 45.9712C6.01284 45.9104 5.94771 45.9174 5.88956 45.9385C5.55926 46.06 5.21035 46.1441 4.88471 46.2563C4.29622 46.4597 3.73099 46.7448 3.13552 46.9459C3.04247 46.9762 2.97734 47.03 2.97502 47.1258C2.96804 47.3993 2.96804 47.6704 2.97037 47.9439C2.97037 47.9953 3.00061 48.0397 3.05876 48.0421C3.11691 48.0421 3.14715 48 3.15878 47.9509C3.17739 47.8551 3.18669 47.7546 3.20065 47.6564C3.23088 47.4601 3.32858 47.3081 3.49373 47.203C3.61468 47.1258 3.71238 47.1726 3.73331 47.3128C3.74262 47.3736 3.73331 47.4367 3.73331 47.4998C3.73331 48.4184 3.73564 49.337 3.73564 50.2556C3.73564 50.5501 3.78681 50.8563 3.54025 51.0947C3.49373 51.1391 3.48908 51.2115 3.53327 51.2676C3.57747 51.3284 3.64492 51.3191 3.70075 51.2933C3.938 51.1882 4.17526 51.0853 4.42182 51.0012C4.57069 50.9521 4.59395 50.7931 4.4823 50.702C4.28459 50.5384 4.30785 50.3327 4.30785 50.1247C4.30785 49.143 4.30319 48.1636 4.30087 47.1819C4.30087 47.0954 4.29622 47.0043 4.32413 46.9248C4.35669 46.8266 4.44508 46.7706 4.55208 46.7589C4.67071 46.7495 4.73351 46.8266 4.76375 46.9295C4.78701 47.0136 4.79864 47.1001 4.81958 47.1819C4.83586 47.245 4.8661 47.3035 4.94286 47.2918C5.01729 47.2801 5.03823 47.2146 5.04055 47.1539C5.04055 46.9926 5.0359 46.8313 5.04055 46.67C5.04055 46.6116 5.05916 46.5485 5.14057 46.5415C5.21268 46.5345 5.2592 46.5765 5.28944 46.6303C5.35224 46.7448 5.32898 46.8711 5.32898 46.9949C5.32433 47.7756 5.32666 48.5586 5.30805 49.3393C5.29874 49.753 5.39179 50.1808 5.13592 50.5688C5.04753 50.7043 5.15686 50.8165 5.31968 50.7628C5.53135 50.6926 5.73604 50.6038 5.93608 50.508C6.06867 50.4449 6.13147 50.3187 6.02215 50.2088C5.85002 50.0335 5.8663 49.8278 5.86863 49.6175C5.86863 49.4305 5.86863 49.2458 5.87095 49.0588C5.8725 48.6023 6.08185 48.3054 6.49899 48.1683C6.75485 48.0841 6.83626 48.1215 6.80835 48.3857C6.74787 48.9303 6.94559 49.5053 6.61994 50.0218C6.55714 50.1223 6.6432 50.2111 6.77346 50.1924C6.83394 50.1831 6.89209 50.1597 6.95024 50.141C7.53408 49.9447 8.12024 49.7437 8.70873 49.5567C9.5182 49.2972 9.38329 49.4305 9.4019 48.5937C9.40422 48.4792 9.46935 48.2898 9.32049 48.2711L9.32746 48.2805ZM7.6876 47.6284C7.6876 48.1496 7.68992 48.6685 7.6876 49.1897C7.6876 49.3183 7.71551 49.5216 7.54571 49.524C7.32706 49.5263 7.39917 49.3113 7.39917 49.178C7.39917 48.173 7.40149 47.1702 7.40615 46.1652C7.40615 46.0553 7.39917 45.9408 7.45267 45.8379C7.47593 45.7912 7.50849 45.7585 7.56664 45.7585C7.62479 45.7585 7.66201 45.8029 7.66899 45.8473C7.6876 45.9431 7.69458 46.0436 7.69458 46.1418C7.6969 46.6373 7.69458 47.1352 7.69458 47.6307H7.68992L7.6876 47.6284ZM18.6177 47.1866C18.4479 46.0553 18.199 44.9404 17.9804 43.8208C17.9571 43.7039 17.985 43.538 17.8338 43.5076C17.6966 43.4772 17.6315 43.6291 17.5454 43.711C17.4477 43.8044 17.4291 43.926 17.471 44.0545C17.5175 44.2018 17.5059 44.3467 17.471 44.494C17.2733 45.3915 17.0825 46.2914 16.8871 47.1866C16.8569 47.3245 16.8499 47.4834 16.6917 47.5676C16.608 47.4951 16.6243 47.4273 16.6127 47.3689C16.5894 47.238 16.722 47.0206 16.5196 46.9996C16.3707 46.9832 16.3894 47.2076 16.3614 47.3339C16.2731 47.7195 16.1707 47.8107 15.7846 47.8247C15.552 47.834 15.5124 47.8013 15.5101 47.5489C15.5031 47.1515 15.5078 46.7542 15.5078 46.3568C15.5078 46.3078 15.5124 46.2563 15.5194 46.2072C15.5264 46.1395 15.5752 46.0974 15.638 46.081C15.7008 46.067 15.7613 46.088 15.7985 46.1441C15.8195 46.1745 15.8334 46.2096 15.8451 46.2446C15.8799 46.3405 15.9125 46.4597 16.0381 46.4199C16.1544 46.3826 16.1172 46.254 16.1172 46.1582C16.1172 45.9829 16.1219 45.8099 16.1126 45.6369C16.1056 45.5107 16.2009 45.3214 16.0358 45.2793C15.8893 45.2396 15.8916 45.4453 15.8265 45.5411C15.7753 45.6206 15.7078 45.6673 15.6101 45.6369C15.5217 45.6089 15.5101 45.5364 15.5101 45.457C15.5101 45.0736 15.5101 44.688 15.5101 44.3023C15.5101 44.1504 15.5822 44.0779 15.7264 44.0499C15.9637 44.0008 16.0986 44.0686 16.187 44.2976C16.2172 44.3794 16.2428 44.4636 16.2731 44.543C16.2917 44.5898 16.3242 44.6319 16.38 44.6319C16.4591 44.6319 16.487 44.5664 16.4894 44.5057C16.494 44.2462 16.4917 43.9844 16.487 43.725C16.487 43.6385 16.4312 43.5871 16.3428 43.5988C15.8869 43.6502 15.4333 43.6946 14.9821 43.7577C14.7634 43.7881 14.7216 43.8886 14.8239 44.1013C14.8797 44.2158 14.9286 44.3233 14.9286 44.4519C14.9286 45.5084 14.9286 46.5625 14.9263 47.6214C14.9263 47.7569 14.9309 47.9229 14.7634 47.9579C14.5681 47.9977 14.5843 47.799 14.5308 47.6868C14.3261 47.2357 14.2657 46.7285 13.9842 46.3078C13.9214 46.2166 13.9889 46.1535 14.0563 46.088C14.5262 45.6346 14.6727 44.9077 14.4238 44.3116C14.2982 44.0125 14.0982 43.8816 13.7865 43.926C13.4562 43.9727 13.1259 44.0312 12.8003 44.0966C12.5886 44.1387 12.5235 44.2672 12.6514 44.4449C12.7747 44.6132 12.777 44.7861 12.777 44.9731C12.7816 45.8426 12.791 46.7121 12.791 47.5816C12.791 47.8738 12.8468 48.1683 12.6421 48.4394C12.5421 48.575 12.6537 48.6965 12.8375 48.6685C13.0096 48.6428 13.1794 48.6124 13.3469 48.568C13.5213 48.5236 13.5632 48.4254 13.4795 48.2618C13.4329 48.173 13.3469 48.1052 13.3469 48C13.3376 47.5793 13.3306 47.1562 13.3259 46.7332C13.3259 46.6677 13.3469 46.6046 13.4213 46.5999C13.4725 46.5953 13.5074 46.6397 13.5306 46.6841C13.5516 46.7308 13.5679 46.7776 13.5818 46.8243C13.7028 47.2427 13.8284 47.6564 13.94 48.0748C14.0354 48.4348 14.0517 48.4628 14.4238 48.381C14.7867 48.2968 15.1542 48.2594 15.5241 48.2314C16.0288 48.1893 16.5312 48.1192 17.0406 48.1169C17.2593 48.1169 17.35 47.979 17.2198 47.8411C16.9825 47.5886 17.0848 47.3339 17.1546 47.0767C17.2221 46.815 17.6966 46.6584 17.9059 46.8196C17.9432 46.85 17.985 46.8968 17.9897 46.9388C18.0106 47.217 18.2339 47.4905 17.9757 47.7826C17.8478 47.9299 17.9362 48.0725 18.1339 48.0795C18.306 48.0865 18.4805 48.0654 18.6526 48.0491C18.9201 48.0257 18.9829 47.9088 18.8224 47.6915C18.7061 47.5349 18.641 47.3689 18.6154 47.1819L18.6177 47.1866ZM13.9214 45.5247C13.8935 45.6837 13.84 45.8379 13.7097 45.9501C13.626 46.0226 13.5399 46.1067 13.4143 46.0506C13.3004 45.9992 13.3283 45.8847 13.3259 45.7889C13.3236 45.6019 13.3259 45.4172 13.3259 45.2302H13.319C13.319 45.0316 13.319 44.8329 13.319 44.6342C13.319 44.5127 13.3469 44.4122 13.4771 44.3724C13.6074 44.335 13.7214 44.3607 13.8051 44.4753C13.8702 44.5664 13.9214 44.6669 13.9307 44.7815C13.954 45.0292 13.9656 45.2793 13.9237 45.5247H13.9214ZM17.6384 46.434C17.5198 46.4363 17.3244 46.4667 17.3407 46.3171C17.3756 45.9501 17.4175 45.5738 17.6152 45.1601C17.7757 45.5715 17.8175 45.9198 17.8687 46.2657C17.8897 46.4176 17.7524 46.434 17.6408 46.434H17.6384ZM49.1657 55.0191C48.9424 54.9864 49.0076 55.2435 48.9703 55.3837C48.9029 55.6408 48.8215 55.7226 48.5959 55.7039C48.4865 55.6946 48.3772 55.6689 48.2702 55.6432C48.1748 55.6198 48.112 55.5543 48.112 55.4585C48.1051 54.9864 48.1051 54.5166 48.1051 54.0444C48.1051 53.9649 48.1399 53.8948 48.2237 53.8761C48.3191 53.8551 48.3981 53.8972 48.4354 53.986C48.4702 54.0654 48.4842 54.1519 48.5191 54.2314C48.5424 54.2875 48.5865 54.3459 48.661 54.3249C48.7145 54.3109 48.7308 54.2524 48.7284 54.2057C48.7098 53.8948 48.7005 53.5863 48.7191 53.2778C48.7191 53.2474 48.6936 53.2053 48.6656 53.1889C48.6191 53.1632 48.5703 53.1819 48.54 53.231C48.5214 53.2614 48.5051 53.2965 48.4889 53.3292C48.44 53.4367 48.3772 53.5325 48.2376 53.4905C48.1074 53.4507 48.0934 53.3362 48.0934 53.217C48.0911 52.8827 48.0841 52.5462 48.0864 52.2119C48.0864 51.9057 48.1888 51.8356 48.4726 51.9221C48.6261 51.9688 48.7354 52.053 48.7726 52.2166C48.7982 52.3241 48.8285 52.4316 48.861 52.5392C48.8796 52.6023 48.9262 52.656 48.9959 52.6443C49.068 52.635 49.089 52.5695 49.089 52.5064C49.089 52.2446 49.0843 51.9852 49.075 51.7234C49.0727 51.5995 48.9959 51.5691 48.8796 51.5621C48.2935 51.5154 47.7166 51.4312 47.1397 51.2863C46.5931 51.1484 46.0279 51.083 45.4743 50.9544C45.3906 50.9357 45.3138 50.9544 45.3091 51.0479C45.2975 51.3214 45.2998 51.5925 45.3022 51.866C45.3022 51.9338 45.3487 51.9875 45.4185 51.9875C45.4696 51.9875 45.5022 51.9408 45.5162 51.887C45.5441 51.7678 45.5348 51.6369 45.6069 51.5294C45.665 51.4406 45.7395 51.3798 45.8534 51.4079C45.9535 51.4312 45.9907 51.506 45.9953 51.5995C46 51.6884 46 51.7748 46 51.8613V53.3152H45.9977C45.9977 53.8247 45.9977 54.3342 45.9977 54.8415C45.9977 54.9794 45.9953 55.1126 45.9116 55.2341C45.7953 55.4048 45.7395 55.4094 45.6139 55.2528C45.4324 55.0284 45.4068 54.7526 45.358 54.4838C45.1393 53.238 44.9207 51.9899 44.702 50.7441C44.6858 50.6506 44.7044 50.529 44.5881 50.4893C44.4601 50.4472 44.3857 50.5571 44.3043 50.6272C44.2019 50.716 44.1577 50.8235 44.2019 50.9591C44.2415 51.0783 44.2578 51.1998 44.2345 51.3237C44.0601 52.2774 43.8903 53.2287 43.7135 54.18C43.6786 54.3623 43.6367 54.5376 43.5111 54.6919C43.3855 54.8438 43.432 54.963 43.6065 55.0401C43.6739 55.0705 43.7484 55.0892 43.8181 55.1056C43.9019 55.1243 43.9949 55.1617 44.0624 55.0822C44.1415 54.991 44.1019 54.8929 44.0368 54.8134C43.8042 54.5306 43.981 54.2454 44.0298 53.9626C44.0391 53.9135 44.0856 53.8831 44.1345 53.8668C44.2741 53.8154 44.7067 53.9346 44.7346 54.0631C44.8021 54.3857 45.0416 54.7035 44.7858 55.0518C44.6927 55.1757 44.7044 55.344 44.8695 55.3884C45.1347 55.4585 45.3836 55.6665 45.6813 55.5216C45.7488 55.4912 45.7976 55.5286 45.8511 55.5543C46.0651 55.6619 46.307 55.6642 46.5326 55.718C46.6048 55.7367 46.6862 55.746 46.735 55.6736C46.7839 55.6034 46.7676 55.5193 46.7164 55.4655C46.542 55.2809 46.5629 55.0565 46.5629 54.8344V52.0016C46.5629 51.9291 46.5606 51.852 46.5629 51.7772C46.5629 51.7 46.5768 51.6229 46.6629 51.5995C46.742 51.5808 46.8048 51.6276 46.8583 51.6837C46.9653 51.7959 47.0141 51.9314 47.0304 52.0857C47.0421 52.1862 47.0118 52.3545 47.163 52.3428C47.3049 52.3288 47.2467 52.1675 47.263 52.0647C47.2816 51.9595 47.1886 51.7748 47.3793 51.7748C47.5282 51.7748 47.5328 51.9431 47.5445 52.0647C47.5491 52.1021 47.5468 52.1395 47.5468 52.1745C47.5468 53.1562 47.5491 54.1379 47.5538 55.1173C47.5538 55.2926 47.5468 55.4515 47.4328 55.6081C47.3072 55.7834 47.3491 55.8863 47.5538 55.9237C48.0399 56.0078 48.5307 56.0779 49.0192 56.155C49.1588 56.1761 49.2309 56.113 49.2332 55.9727C49.2378 55.7857 49.2448 55.5988 49.2402 55.4141C49.2378 55.2715 49.3239 55.0425 49.1611 55.0168L49.1657 55.0191ZM44.5904 53.5325C44.4415 53.605 44.1182 53.4484 44.1229 53.2894C44.1368 52.9131 44.2438 52.5508 44.3578 52.1839C44.5532 52.5695 44.5602 52.9856 44.6579 53.3783C44.6741 53.4437 44.6532 53.4998 44.5904 53.5325ZM53.5085 52.1699C53.4782 52.0413 53.4131 51.9572 53.2735 52.0296C53.0805 52.1301 52.9665 52.3615 53.0177 52.5859C53.0549 52.7402 53.0293 52.8781 52.9967 53.023C52.8595 53.6424 52.7386 54.2618 52.5943 54.8765C52.5106 55.2248 52.4734 55.5871 52.3268 55.919C52.271 56.0475 52.0942 56.1597 52.2059 56.3163C52.3152 56.4683 52.5059 56.3724 52.6595 56.3888C52.6711 56.3888 52.6827 56.3888 52.6944 56.3888C52.9014 56.3584 52.9665 56.2322 52.8107 56.0966C52.6222 55.9307 52.6362 55.7647 52.7037 55.5637C52.7223 55.5053 52.7362 55.4445 52.7525 55.3837C52.7804 55.2739 52.813 55.1453 52.9479 55.1476C53.1503 55.15 53.3759 55.0565 53.5527 55.2131C53.7108 55.351 53.7597 55.8535 53.655 56.0429C53.5131 56.293 53.555 56.3818 53.8318 56.3818C54.2761 56.3818 54.7227 56.3724 55.1646 56.3561C55.4112 56.3467 55.4786 56.2345 55.3461 56.0195C55.2391 55.8465 55.2274 55.6735 55.2298 55.4866C55.2344 54.582 55.2391 53.6751 55.2437 52.7706C55.2437 52.5368 55.2251 52.3078 55.3856 52.0951C55.4926 51.9501 55.4158 51.8426 55.2251 51.8356C55.053 51.8286 54.8785 51.8333 54.7064 51.852C54.5366 51.8683 54.4738 51.9665 54.5692 52.1021C54.7203 52.3148 54.711 52.5415 54.711 52.7776C54.711 53.2123 54.711 53.6471 54.711 54.0818H54.6971C54.6971 54.5773 54.6994 55.0728 54.6971 55.5707C54.6971 55.7133 54.7436 55.919 54.5622 55.9517C54.3412 55.9891 54.3435 55.7624 54.3086 55.6128C54.1063 54.7456 53.9086 53.8761 53.7085 53.0043C53.6457 52.7261 53.5759 52.448 53.5131 52.1722L53.5085 52.1699ZM53.3875 54.755C53.2573 54.8017 53.1154 54.8181 52.9921 54.755C52.8595 54.6895 52.92 54.5563 52.9409 54.4558C52.9967 54.1847 53.0154 53.9018 53.1805 53.5723C53.3503 53.9533 53.3805 54.2875 53.4666 54.6007C53.4852 54.6662 53.4526 54.7293 53.3875 54.755ZM55.881 56.3163C56.0764 56.3 56.2718 56.2649 56.4649 56.2205C56.5719 56.1948 56.6533 56.0849 56.5812 55.9961C56.3416 55.7016 56.423 55.3603 56.4044 54.9349C56.4044 54.8344 56.4044 54.6358 56.4044 54.4371C56.4044 54.374 56.4253 54.3109 56.5044 54.3109C56.5603 54.3109 56.5928 54.3529 56.6091 54.3997C56.6347 54.4675 56.6556 54.5399 56.6766 54.6124C56.7812 54.9934 56.8743 55.379 56.9859 55.76C57.1115 56.1901 57.1232 56.1901 57.5535 56.106C57.5767 56.1013 57.6023 56.1013 57.6256 56.0943C57.8233 56.0405 57.8768 55.9377 57.7582 55.7717C57.6233 55.5847 57.5674 55.372 57.4977 55.1617C57.3976 54.8672 57.2999 54.575 57.1906 54.2828C57.1487 54.1683 57.0417 54.0678 57.0371 53.9556C57.0278 53.8177 57.2185 53.8107 57.2883 53.7102C57.3395 53.6401 57.3953 53.5723 57.4348 53.4975C57.6442 53.0767 57.6465 52.6303 57.5395 52.1909C57.4511 51.8356 57.1767 51.665 56.8184 51.7024C56.5137 51.7351 56.2067 51.7748 55.8997 51.8263C55.6903 51.8613 55.6345 51.9595 55.7508 52.1325C55.8601 52.2914 55.8671 52.4527 55.8671 52.6256C55.8671 53.4344 55.8717 54.2384 55.8671 55.0448C55.8648 55.3977 55.9322 55.76 55.7136 56.0896C55.6275 56.2205 55.7182 56.3374 55.8787 56.3233L55.881 56.3163ZM56.3881 52.9552C56.3881 52.7425 56.3881 52.5321 56.3881 52.3218C56.3881 52.1815 56.4533 52.0857 56.5951 52.0553C56.7254 52.0296 56.8068 52.1091 56.865 52.2072C56.9092 52.2797 56.9371 52.3662 56.9603 52.448C57.0371 52.7542 57.0138 53.0627 56.9394 53.3666C56.9045 53.5138 56.8347 53.6471 56.7045 53.7335C56.5463 53.8387 56.4067 53.7733 56.3928 53.584C56.3788 53.3736 56.3928 53.1632 56.3928 52.9529L56.3881 52.9552ZM12.3769 46.9412C12.3513 46.434 12.3769 46.434 11.8791 46.5695C11.8443 46.5789 11.8047 46.5836 11.7721 46.5952C11.5698 46.67 11.5233 46.7916 11.6558 46.9622C11.7419 47.0721 11.828 47.1702 11.8303 47.3175C11.8303 47.6027 11.8373 47.8878 11.8349 48.173C11.8349 48.2968 11.8024 48.4184 11.721 48.5189C11.5372 48.748 11.3093 48.7409 11.1464 48.4932C11.0371 48.3272 10.965 48.1379 10.9278 47.9416C10.7812 47.1165 10.7417 46.2914 10.8859 45.4616C10.9255 45.2396 10.9929 45.0269 11.0976 44.8305C11.1674 44.6973 11.2651 44.5828 11.4325 44.5664C11.6093 44.5477 11.7442 44.6319 11.821 44.8399C11.8861 45.0129 11.9303 45.1952 11.9908 45.3705C12.0187 45.4499 12.0838 45.4897 12.1652 45.464C12.2327 45.4429 12.249 45.3775 12.2443 45.312C12.2304 44.9684 12.2141 44.6272 12.1955 44.2392C12.0001 44.349 11.8512 44.349 11.6814 44.2602C11.4581 44.1457 11.2325 44.1971 11.0232 44.3514C10.5603 44.6926 10.3649 45.1858 10.2672 45.7164C10.1323 46.441 10.1369 47.1726 10.2579 47.9018C10.3137 48.2407 10.4603 48.5399 10.7045 48.783C10.9231 49.0027 11.1883 49.0892 11.486 49.0191C11.8745 48.9279 12.1815 48.7059 12.4141 48.3833C12.4816 48.2922 12.5537 48.1823 12.5002 48.0748C12.3188 47.7102 12.3979 47.3175 12.3792 46.9412H12.3769ZM40.6826 50.9801C40.5221 50.7534 40.4965 50.494 40.557 50.2322C40.6175 49.9681 40.8268 49.912 41.0269 50.0919C41.1455 50.1971 41.1897 50.3374 41.2176 50.4846C41.2479 50.6436 41.2734 50.8025 41.3083 50.9591C41.3176 51.0058 41.3502 51.0479 41.413 51.0409C41.4572 51.0362 41.4805 51.0012 41.4828 50.9685C41.5177 50.6973 41.5084 50.4238 41.4874 50.1527C41.4851 50.12 41.4572 50.0686 41.4316 50.0616C41.213 49.9984 41.1223 49.7834 40.9594 49.6595C40.7222 49.4819 40.5407 49.4982 40.3477 49.725C40.1895 49.9096 40.1104 50.127 40.0848 50.3677C40.0104 51.069 40.1849 51.6954 40.6198 52.2493C40.7803 52.4527 40.9455 52.656 41.0734 52.8851C41.2199 53.1492 41.2386 53.432 41.1804 53.7148C41.1106 54.0538 40.871 54.1192 40.6105 53.8925C40.5152 53.8083 40.443 53.7125 40.4105 53.5863C40.3663 53.418 40.3198 53.252 40.2779 53.0838C40.2593 53.0113 40.2523 52.9365 40.1988 52.8781C40.1616 52.8383 40.1151 52.8173 40.0686 52.8407C40.0406 52.8547 40.0081 52.8944 40.0081 52.9248C40.0034 53.0744 40.0057 53.2217 40.0057 53.3713H40.0011C40.0011 53.5092 39.9988 53.6447 40.0011 53.7803C40.0034 53.8738 40.043 53.972 40.1407 53.9696C40.336 53.9673 40.4128 54.1075 40.5245 54.2221C40.8524 54.5586 41.1874 54.5189 41.4339 54.1145C41.5502 53.9229 41.6247 53.7172 41.6549 53.4881C41.7526 52.7028 41.5456 52.0156 41.0315 51.4172C40.9106 51.277 40.7943 51.1321 40.6873 50.9801H40.6826ZM51.7918 52.233C51.9686 52.2657 52.0803 52.3639 52.1291 52.5345C52.1524 52.6186 52.1617 52.7051 52.1826 52.7893C52.1989 52.857 52.2478 52.8991 52.3175 52.8827C52.3687 52.8711 52.392 52.822 52.3896 52.7682C52.3873 52.5321 52.3827 52.2961 52.3803 52.0623C52.3803 51.9361 52.3129 51.8894 52.1919 51.8917C51.971 51.8964 51.7477 51.8917 51.5267 51.8917C51.5267 51.8753 51.5267 51.859 51.5267 51.845C51.2917 51.845 51.0568 51.8403 50.8242 51.845C50.6335 51.852 50.5614 51.9525 50.6707 52.1021C50.8103 52.2891 50.8126 52.4901 50.8149 52.7028C50.8196 53.584 50.8242 54.4628 50.8265 55.344C50.8265 55.5917 50.8475 55.8325 50.68 56.0545C50.573 56.1971 50.6428 56.3163 50.8242 56.342C51.0056 56.3677 51.1941 56.3748 51.3778 56.3701C51.5569 56.3677 51.6151 56.2602 51.536 56.0966C51.4895 55.9984 51.3825 55.926 51.3825 55.8068C51.3755 55.3346 51.3732 54.8648 51.3708 54.3927C51.3708 54.2992 51.4081 54.2221 51.5127 54.2057C51.6104 54.1917 51.6848 54.2337 51.729 54.3179C51.7686 54.3927 51.7918 54.4792 51.8221 54.5586C51.8477 54.6217 51.8919 54.6662 51.9617 54.6521C52.0105 54.6428 52.0477 54.6007 52.0477 54.5446C52.0477 54.2221 52.0477 53.8995 52.0407 53.5793C52.0407 53.5279 52.0082 53.4811 51.9523 53.4811C51.9221 53.4811 51.8826 53.5068 51.864 53.5325C51.836 53.5723 51.8244 53.6237 51.8058 53.6681C51.75 53.799 51.6523 53.8668 51.5127 53.8294C51.3778 53.7943 51.3732 53.6728 51.3708 53.5582C51.3708 53.2357 51.3708 52.9131 51.3708 52.5906C51.3708 52.2446 51.4546 52.1769 51.7918 52.2353V52.233ZM38.5613 53.0931C38.3077 52.2376 38.0612 51.3775 37.81 50.522C37.7844 50.4355 37.7588 50.342 37.81 50.2672C37.9891 50.0008 38.1286 49.7016 38.3612 49.4772C38.6822 49.1687 38.6846 49.1219 38.2984 48.9233C38.2426 48.8929 38.1891 48.8672 38.1333 48.8391C38.0775 48.8087 38.0146 48.7807 37.9588 48.8204C37.8821 48.8718 37.8914 48.963 37.9356 49.0191C38.0868 49.2224 37.9984 49.3884 37.8821 49.5614C37.7983 49.6852 37.7309 49.8185 37.6611 49.9494C37.6029 50.0569 37.5564 50.1761 37.3587 50.2252C37.3587 49.9353 37.3587 49.6806 37.3587 49.4235C37.3587 49.2037 37.3331 48.9817 37.4913 48.7854C37.5843 48.6708 37.5332 48.5399 37.4076 48.4698C37.2447 48.3833 37.0772 48.3039 36.9028 48.2407C36.733 48.1776 36.6586 48.2454 36.7121 48.4161C36.7679 48.5914 36.833 48.762 36.8307 48.956C36.8237 49.961 36.826 50.9684 36.8237 51.9735C36.8237 52.0927 36.8563 52.2563 36.7004 52.2867C36.5306 52.3171 36.533 52.1371 36.4981 52.0296C36.3027 51.4546 36.205 50.8492 35.9468 50.2953C35.9003 50.1948 35.9514 50.1247 36.0538 50.1036C36.3515 50.0405 36.426 49.8068 36.4701 49.552C36.5213 49.2668 36.4934 48.9864 36.4329 48.7035C36.3539 48.3389 36.1585 48.0584 35.8328 47.8948C35.5025 47.7289 35.1513 47.6003 34.8093 47.4601C34.7419 47.4297 34.6628 47.411 34.607 47.4834C34.5535 47.5512 34.5767 47.6307 34.6209 47.6891C34.7698 47.8808 34.7628 48.1028 34.7605 48.3296C34.7559 49.2482 34.7535 50.1667 34.7512 51.0853C34.7512 51.2513 34.7326 51.3962 34.6302 51.5411C34.493 51.7328 34.5256 51.8099 34.7419 51.9057C34.9117 51.9782 35.0885 52.039 35.2606 52.1021C35.3188 52.1254 35.3816 52.1418 35.4281 52.081C35.4746 52.0249 35.4653 51.9595 35.4281 51.9104C35.3234 51.7608 35.2769 51.6042 35.2792 51.4219C35.2839 51.1227 35.2653 50.8259 35.2676 50.5267C35.2676 50.4122 35.1978 50.2275 35.3513 50.2041C35.5072 50.1808 35.4932 50.3771 35.5211 50.487C35.656 51.0292 35.7816 51.5715 35.9119 52.1161C35.9421 52.2353 35.9561 52.3709 36.084 52.427C36.4911 52.6093 36.9005 52.7846 37.3099 52.9599C37.368 52.9833 37.4308 52.9926 37.4797 52.9365C37.5285 52.8827 37.5169 52.8196 37.4866 52.7635C37.4029 52.6093 37.3401 52.4527 37.3424 52.2704C37.3424 51.9361 37.3354 51.5995 37.3378 51.2653C37.3378 51.1998 37.3075 51.111 37.4331 51.0806C37.5587 51.2466 37.5983 51.4523 37.6448 51.6556C37.7076 51.9338 37.7658 52.2143 37.8402 52.4877C37.8844 52.6467 37.9286 52.7939 37.8216 52.9505C37.7379 53.0744 37.7751 53.1889 37.91 53.2591C38.117 53.3689 38.3263 53.4811 38.538 53.5769C38.6543 53.6284 38.7404 53.5536 38.7055 53.4297C38.6706 53.3128 38.5985 53.2053 38.5636 53.0908L38.5613 53.0931ZM35.8514 49.4912C35.7956 49.7203 35.6932 49.8115 35.5374 49.7881C35.3839 49.767 35.242 49.6455 35.2699 49.4094C35.2908 49.2388 35.2746 49.0612 35.2746 48.8882H35.2792C35.2792 48.6895 35.2699 48.4908 35.2815 48.2922C35.2932 48.0865 35.3978 48.0351 35.5769 48.1426C35.6863 48.208 35.7654 48.2992 35.8026 48.4254C35.9096 48.7783 35.9398 49.1313 35.8491 49.4912H35.8514ZM31.5692 48.984C31.5692 48.8321 31.5947 48.6872 31.6436 48.5469C31.7459 48.2548 31.8297 47.9533 31.9506 47.6681C32.0762 47.3759 32.1018 47.0417 32.3368 46.7893C32.4368 46.6817 32.3949 46.5508 32.2553 46.4831C32.167 46.441 32.0693 46.4153 31.9762 46.3825C31.9041 46.3568 31.8274 46.3311 31.7762 46.4129C31.7413 46.469 31.7599 46.5345 31.7925 46.5882C31.8483 46.6817 31.9367 46.7635 31.939 46.8944C31.8134 47.2567 31.6901 47.6213 31.5575 47.979C31.5319 48.0491 31.4529 48.0351 31.411 47.9743C31.3784 47.9229 31.3552 47.8621 31.3412 47.8037C31.2528 47.4297 31.1691 47.0534 31.0784 46.6794C31.0528 46.5719 31.0853 46.4947 31.1458 46.4059C31.2947 46.1815 31.2691 46.0997 31.0249 45.9875C30.8341 45.9011 30.6364 45.8263 30.441 45.7468C30.3736 45.7187 30.3038 45.6697 30.2387 45.7374C30.1782 45.7982 30.1921 45.88 30.2247 45.9455C30.4806 46.462 30.5504 47.037 30.7364 47.5769C30.9783 48.2781 31.09 48.9934 31.0342 49.7367C31.0202 49.9096 31.0225 50.0686 30.8946 50.2205C30.769 50.3677 30.8132 50.4846 30.9946 50.5711C31.1621 50.6506 31.3342 50.7207 31.504 50.7908C31.5785 50.8212 31.6669 50.8937 31.7366 50.7931C31.7901 50.7137 31.7762 50.6132 31.718 50.5477C31.5366 50.349 31.5668 50.1106 31.5668 49.8769C31.5668 49.5801 31.5715 49.2809 31.5692 48.984ZM20.4111 43.5076C20.0645 43.5684 19.7203 43.4749 19.376 43.5076C19.1271 43.531 18.8015 43.3229 18.6573 43.5497C18.5386 43.739 18.6177 44.0545 18.6084 44.314C18.6084 44.3257 18.6084 44.3397 18.6084 44.3514C18.6131 44.4238 18.6084 44.5173 18.7038 44.522C18.7945 44.529 18.8178 44.4402 18.8317 44.3677C18.855 44.2345 18.8457 44.0919 18.9271 43.9751C18.9945 43.8769 19.0899 43.8185 19.2109 43.8442C19.3295 43.8699 19.3481 43.9727 19.3527 44.0756C19.3551 44.1247 19.3527 44.1737 19.3527 44.2252C19.3527 45.118 19.3527 46.0109 19.3527 46.9038C19.3527 47.1959 19.4039 47.4928 19.1783 47.7522C19.0783 47.8668 19.1504 47.9977 19.3062 48.0187C19.476 48.0421 19.6505 48.0444 19.8226 48.0444C20.1017 48.0444 20.1738 47.9346 20.011 47.7125C19.8901 47.5466 19.8738 47.3759 19.8738 47.1889C19.8761 46.7051 19.8738 46.2213 19.8738 45.7374H19.8668V44.1363C19.8668 44.0242 19.8552 43.8909 19.9971 43.8652C20.1529 43.8372 20.2506 43.9377 20.2971 44.0826C20.3157 44.141 20.3204 44.2041 20.3297 44.2649C20.339 44.3257 20.3436 44.3888 20.3576 44.4472C20.3739 44.515 20.4274 44.5524 20.4972 44.5384C20.5483 44.529 20.5832 44.487 20.5832 44.4309C20.5832 44.1597 20.5809 43.8863 20.5693 43.6128C20.5646 43.524 20.4902 43.4866 20.4088 43.5006L20.4111 43.5076ZM43.5483 51.4967C43.6088 51.506 43.6414 51.4593 43.639 51.4102C43.639 51.1508 43.6344 50.889 43.6228 50.6295C43.6181 50.5243 43.5367 50.487 43.4413 50.4823C43.2041 50.4729 42.9808 50.3935 42.7528 50.3397C42.476 50.2743 42.1992 50.2088 41.9247 50.1434C41.7759 50.1083 41.6828 50.1504 41.6828 50.321C41.6828 50.5197 41.6782 50.7184 41.6805 50.917C41.6805 50.9778 41.6875 51.0479 41.7666 51.0549C41.8433 51.0619 41.8643 50.9942 41.8829 50.9357C41.9108 50.8539 41.9271 50.7674 41.962 50.688C42.0085 50.5851 42.1015 50.5501 42.2085 50.5688C42.3225 50.5875 42.3783 50.6623 42.383 50.7744C42.3853 50.8235 42.383 50.875 42.383 50.924C42.3853 51.9408 42.3876 52.9575 42.39 53.9766C42.39 54.0888 42.3946 54.1987 42.3458 54.3062C42.1829 54.6778 42.1969 54.7035 42.5784 54.79C42.6877 54.8134 42.797 54.8414 42.9063 54.8508C43.0971 54.8672 43.1738 54.769 43.0622 54.6101C42.9226 54.409 42.9226 54.1963 42.9226 53.972C42.9249 53.5138 42.9226 53.0534 42.9226 52.5952H42.9156C42.9156 52.074 42.9156 51.5528 42.9156 51.0316C42.9156 50.9357 42.8784 50.8212 43.0087 50.7791C43.1366 50.7394 43.218 50.8259 43.2878 50.9147C43.3599 51.0035 43.3925 51.111 43.4088 51.2232C43.4204 51.2957 43.4343 51.3681 43.4599 51.4383C43.4692 51.464 43.5111 51.492 43.5413 51.4967H43.5483ZM33.6347 47.0721C33.1416 46.67 32.6647 46.7425 32.3251 47.2824C32.2647 47.3783 32.2321 47.4811 32.1995 47.5886C31.953 48.4231 32.0041 49.2598 32.2251 50.0849C32.36 50.5898 32.6322 51.0129 33.1044 51.2793C33.4602 51.4803 33.7998 51.4219 34.0627 51.1064C34.1511 51.0012 34.2209 50.8866 34.2744 50.7604C34.4465 50.3514 34.4814 49.919 34.4907 49.4866C34.4953 49.15 34.4674 48.8134 34.3837 48.4885C34.2464 47.9626 34.0836 47.439 33.6324 47.0697L33.6347 47.0721ZM33.7719 50.4893C33.7417 50.6225 33.6998 50.7534 33.6277 50.8703C33.4742 51.118 33.2439 51.1391 33.0509 50.9147C32.9462 50.7931 32.8811 50.6482 32.8276 50.4916C32.6624 50.0125 32.6717 49.5146 32.6368 49.0027C32.6717 48.575 32.6531 48.1239 32.7764 47.6915C32.8415 47.4624 32.902 47.1913 33.1834 47.1796C33.4695 47.1656 33.5905 47.4203 33.6859 47.6564C33.7952 47.9229 33.8394 48.208 33.8626 48.4908C33.9208 49.1593 33.9208 49.8302 33.7696 50.4916L33.7719 50.4893ZM18.7829 26.3654C18.7666 26.3257 18.7294 26.3 18.6852 26.3C18.634 26.3 18.5921 26.335 18.5828 26.3841L17.5501 29.4858C17.5407 29.5068 17.5361 29.5279 17.5361 29.5536C17.5361 29.6471 17.6105 29.7219 17.7036 29.7219H19.8319C19.925 29.7219 19.9994 29.6471 19.9994 29.5536C19.9994 29.5279 19.9947 29.5021 19.9854 29.4811L18.7829 26.3654ZM46.4466 25.0097C46.3908 24.9794 46.3303 24.949 46.2721 24.9256C46.1512 24.8742 46.0256 24.8344 45.893 24.8087C45.7627 24.7807 45.6255 24.7667 45.4883 24.7667H44.2275C44.0949 24.7667 43.9856 24.8765 43.9856 25.0121V28.5649C43.9856 28.7004 44.0949 28.8103 44.2275 28.8103H45.4883C45.6255 28.8103 45.7627 28.7963 45.893 28.7682C46.0256 28.7425 46.1512 28.7028 46.2721 28.6513C46.3326 28.628 46.3908 28.5976 46.4466 28.5672C47.0746 28.2236 47.498 27.5598 47.498 26.7908C47.498 26.0218 47.0723 25.358 46.4466 25.0144V25.0097ZM60.6936 41.6681L58.7793 41.6377C57.479 41.619 56.6161 40.815 56.2439 40.0717L52.3664 31.7133L52.5106 31.5964C53.9946 30.3787 54.8808 28.4714 54.8808 26.4963C54.8808 23.1702 52.2966 20.3654 48.9983 20.1106L48.6587 20.0849L49.8194 17.4928L47.6538 15.4523L46.2419 14.1083L44.93 15.5481C44.8021 15.686 44.616 15.8613 44.4183 16.0296L44.0228 16.3638V12.9466H45.5208V6.44176L43.5879 6.45812H35.1792H32.9857V6.21737L32.9787 1.83015L29.5246 0C29.3129 0.392676 28.8151 1.1009 27.794 1.93767C25.3772 3.92443 21.8346 5.14453 19.2853 5.81535C18.2944 6.07713 17.2523 6.21036 16.187 6.21036C13.0771 6.21036 10.5742 5.10479 9.66707 4.64901V12.8461L0 12.8391V18.4114H1.92364V37.6408L1.4375 37.8208L0 38.3841V56.2158L2.58192 55.2575C3.67516 54.8531 13.412 51.298 18.5456 51.298H18.7526C25.3447 51.4359 32.4647 54.6101 32.5345 54.6404C33.0229 54.8602 44.6881 60 53.976 60C55.9927 60 57.7884 59.7569 59.319 59.2731L60.6634 58.8477V46.8874L60.6588 43.8302L60.689 41.6634L60.6936 41.6681ZM34.5698 19.9634C34.9559 19.8372 35.235 19.4725 35.235 19.0425V10.6093C35.235 10.1792 34.9582 9.81457 34.5698 9.68835V8.51266C34.5698 8.4402 34.6279 8.38177 34.7024 8.38177H43.4762C43.5483 8.38411 43.6065 8.44254 43.6065 8.515V10.8851C43.6065 10.9575 43.5483 11.016 43.4762 11.016H42.2364C42.1643 11.016 42.1062 10.9575 42.1062 10.8851V10.2984L38.9916 10.2914C38.9195 10.2914 38.8613 10.3498 38.8613 10.4223V12.1052H40.1662C40.5221 12.1052 40.8315 11.9135 40.999 11.626H41.9434C42.0341 11.626 42.1062 11.6985 42.1062 11.7873V14.113C42.1062 14.2018 42.0341 14.2766 41.9434 14.2766H41.0246C40.8664 13.961 40.5407 13.746 40.1639 13.746H38.8567L38.8474 18.9864C38.8474 19.1757 39.0009 19.3276 39.187 19.3276C39.187 19.3276 40.129 19.372 41.9829 19.2458C44.1182 19.1032 46.0791 17.1118 46.0791 17.1118C46.1465 17.044 46.2396 17.0019 46.3419 17.0019C46.4233 17.0019 46.4978 17.0253 46.5606 17.0697L47.2933 17.7616C47.3724 17.8504 47.4189 17.9416 47.4189 18.0678C47.4189 18.1239 47.4072 18.1753 47.3863 18.222L46.1582 20.9708C46.1279 21.0199 46.0767 21.0526 46.0163 21.0526H34.714C34.6256 21.0526 34.5512 20.9801 34.5512 20.889L34.5651 19.9657L34.5698 19.9634ZM33.751 8.38177C33.8231 8.38177 33.8813 8.4402 33.8813 8.51266V9.72108C33.5393 9.87067 33.3021 10.2119 33.3021 10.6093V19.0425C33.3021 19.4398 33.5393 19.7811 33.8813 19.9307V20.8843C33.8813 20.9731 33.8092 21.0479 33.7184 21.0479H29.1454C29.0547 21.0479 28.9826 20.9755 28.9826 20.8843V19.9423C29.3408 19.7998 29.5943 19.4492 29.5943 19.0401V14.2743H27.6637V19.0401C27.6637 19.4679 27.9382 19.8302 28.322 19.9587V20.8843C28.322 20.9731 28.2499 21.0479 28.1592 21.0479H23.4326C23.3442 21.0479 23.2698 20.9755 23.2698 20.8843V19.9681C23.6676 19.8465 23.956 19.4772 23.956 19.0401V11.6915C23.956 11.245 23.6769 10.8617 23.2698 10.7472V10.1979C23.2698 9.93845 23.4303 9.7164 23.6606 9.62758L28.1196 8.28828C28.1336 8.28594 28.1499 8.28126 28.1661 8.28126C28.2545 8.28126 28.3243 8.35372 28.3243 8.4402V9.66498C27.9428 9.79353 27.6684 10.1558 27.6684 10.5836V12.0935H29.599V10.5836C29.599 10.1722 29.3431 9.82158 28.9849 9.679V8.50799C28.9849 8.43553 29.0431 8.37709 29.1152 8.37709H33.7533L33.751 8.38177ZM11.5907 7.69225C11.5907 7.60343 11.6628 7.52863 11.7535 7.52863C11.7721 7.52863 11.7884 7.53097 11.8047 7.53798C12.8258 7.89092 17.4686 9.18816 24.1421 6.24309C28.6523 4.25166 29.6153 2.81885 29.8014 2.4402C29.8176 2.40748 29.8456 2.37242 29.8874 2.37242C29.9037 2.37242 29.9177 2.37943 29.9339 2.38878L30.9574 2.93572C31.0225 2.96377 31.0667 3.02922 31.0667 3.10401L31.0737 6.51656L22.3999 9.12505C22.1882 9.19984 22.037 9.40319 22.037 9.64161L22.0324 19.0401C22.0324 19.4468 22.2812 19.7951 22.6325 19.9377V20.8843C22.6325 20.9731 22.5604 21.0479 22.4697 21.0479H17.8734C17.785 21.0479 17.7129 20.9755 17.7129 20.8866V19.9587C18.092 19.8278 18.3665 19.4655 18.3665 19.0401L18.3944 10.5625C18.3944 10.4527 18.2897 10.3638 18.1781 10.3638C16.1567 10.5882 14.4494 11.8644 13.6121 13.6362C13.5865 13.7016 13.5237 13.746 13.4516 13.746H11.7559C11.6675 13.746 11.593 13.6735 11.593 13.5824V7.69225H11.5907ZM58.7514 57.4383C49.8356 60.2478 33.316 52.8804 33.316 52.8804C33.316 52.8804 25.882 49.524 18.7991 49.3744C13.4236 49.2622 3.34486 52.9225 1.92364 53.4507V45.859C3.34486 45.3307 13.4213 41.6704 18.7991 41.7803C25.882 41.9299 33.316 45.2863 33.316 45.2863C33.316 45.2863 49.8356 52.6537 58.7514 49.8465V57.4383ZM52.6502 47.9159C52.4757 47.9088 52.3268 47.8037 52.2547 47.6541L44.8672 31.7296C44.7974 31.5637 44.6346 31.4468 44.4439 31.4468C44.1903 31.4468 43.9833 31.6549 43.9833 31.9096L43.9879 41.4998C43.9879 42.2968 44.5346 42.9653 45.2696 43.15L46.0209 43.3276C46.1302 43.351 46.214 43.4492 46.214 43.566V46.9833C39.4219 45.478 33.3137 42.755 33.3137 42.755C33.3137 42.755 26.5705 39.7094 19.811 39.2933V37.2692C19.811 37.1336 19.9203 37.0238 20.0552 37.0238C20.0622 37.0238 20.0692 37.0238 20.0785 37.0238C20.5623 37.0588 21.0066 37.1126 21.4857 37.171C21.509 37.171 21.5555 37.1757 21.5788 37.1757C22.0928 37.1757 22.5138 36.755 22.5138 36.2384C22.5138 36.1309 22.4952 36.0281 22.4627 35.9322L21.4066 33.1835C21.3694 33.0947 21.2834 33.0339 21.1833 33.0339H16.5568C16.4475 33.0339 16.3545 33.1063 16.3242 33.2092L15.452 35.9088C15.4264 35.993 15.4124 36.0841 15.4124 36.1776C15.4124 36.6965 15.8288 37.1149 16.3475 37.1149C16.3707 37.1149 16.394 37.1149 16.4196 37.1149C16.8755 37.0588 17.2965 37.0191 17.6826 36.9957C17.8106 36.9957 17.9176 37.0962 17.9245 37.2248V39.2606C12.3979 39.506 3.27043 42.8251 1.92132 43.3253L1.93527 39.8566C1.93527 39.7585 1.9911 39.6743 2.07251 39.6369L2.77265 39.3798C3.39836 39.1554 3.84496 38.5547 3.84496 37.8465V18.1122C3.84496 17.2123 3.12156 16.4854 2.22603 16.4854H2.16323C2.02832 16.4854 1.91899 16.3755 1.91899 16.24V15.0082C1.91899 14.875 2.02832 14.7651 2.16323 14.7651L16.8243 14.7744C16.9569 14.7744 17.0662 14.882 17.0662 15.0175V19.5123C17.0662 19.6455 16.9569 19.7554 16.8243 19.7554H15.745C15.6101 19.7554 15.5031 19.6455 15.5031 19.5123V19.15C15.5031 18.2501 14.7774 17.5232 13.8819 17.5232H9.62985C9.39492 17.5232 9.20418 17.7148 9.20418 17.9509V22.5999H10.9464C11.814 22.5999 12.5211 21.9151 12.563 21.0526L13.6958 21.0362C13.8284 21.0362 13.9377 21.1461 13.9377 21.2793V26.6155C13.9377 26.7511 13.8284 26.8586 13.6958 26.8586H12.5653C12.5653 25.961 11.8419 25.2037 10.9464 25.2037H9.20418V36.4418C9.20418 37.1126 9.75546 37.6549 10.4393 37.6549C10.9883 37.6549 11.4535 37.3042 11.614 36.8181L16.4126 22.1675C16.4452 22.074 16.5359 22.0039 16.6406 22.0039L22.6906 21.9969C22.8 21.9969 22.893 22.0717 22.9232 22.1722L28.7756 37.3884C28.8849 37.6736 29.1617 37.8769 29.4827 37.8769C29.9014 37.8769 30.2433 37.5356 30.2433 37.1126L30.2294 25.2037C30.2294 24.5329 29.7758 23.9696 29.1617 23.8037V22.254C29.1617 22.1208 29.2687 22.0109 29.4036 22.0109H36.5399C36.6725 22.0109 36.7818 22.1208 36.7818 22.254L36.7725 23.7966C36.1422 23.9509 35.6723 24.5212 35.6723 25.2037V38.7955C35.6723 39.5949 36.3166 40.2423 37.1121 40.2423C37.9076 40.2423 38.552 39.5949 38.552 38.7955V25.2037C38.552 24.568 38.1449 24.028 37.5797 23.834L37.5727 22.254C37.5727 22.1208 37.6797 22.0109 37.8146 22.0109H48.5028C50.9661 22.0109 52.9619 24.0164 52.9619 26.4893C52.9619 28.2283 52.0407 29.8177 50.5986 30.561L50.1497 30.79C50.0496 30.8438 49.9845 30.949 49.9845 31.0682C49.9845 31.1126 49.9938 31.1547 50.0078 31.1921L50.1055 31.3954L54.5133 40.9014C55.2507 42.402 56.7649 43.4632 58.5234 43.5497C58.649 43.559 58.7467 43.6642 58.7467 43.7928V47.3081C56.9627 47.8738 54.8553 48.0257 52.6478 47.9112L52.6502 47.9159Z" fill="#FFF5D5"/>
</g>
<defs>
<clipPath id="clip0_1244_1346">
<rect width="60.6936" height="60" fill="white"/>
</clipPath>
</defs>
</svg>
