<svg version="1.1" id="Layer_1" xmlns="http://www.w3.org/2000/svg" xmlns:xlink="http://www.w3.org/1999/xlink" x="0px" y="0px" viewBox="0 0 114 74.0" xml:space="preserve"><path d="M0,26.5V10.7h45.7v15.8h-3.5v-9.8c0.2-1.9-1.2-3.7-3.1-3.9c-1.9-0.2-3.7,1.2-3.9,3.1c0,0.2,0,0.5,0,0.7v9.8h-3.4v-9.9
c0.1-1.9-1.4-3.6-3.3-3.7c-1.8-0.1-3.4,1.2-3.7,3c-0.1,0.3-0.1,0.7-0.1,1v9.6h-3.5c0-0.1,0-0.2,0-0.4v-9.3c0.1-1.9-1.4-3.6-3.3-3.7
c-1.9-0.1-3.6,1.4-3.7,3.3c0,0.1,0,0.3,0,0.4v9.7h-3.6v-9.8c0-1.9-1.6-3.5-3.5-3.5s-3.5,1.6-3.5,3.5v9.8L0,26.5z"></path> <path d="M93,26.5h-3.5v-9.8c0.1-1.8-1.2-3.4-3-3.6c-1.7-0.3-3.3,0.7-3.8,2.2c-0.2,0.5-0.2,1-0.2,1.4c0,3.1,0,6.2,0,9.3v0.4h-3.5
v-9.8c0-1.9-1.6-3.5-3.5-3.5s-3.5,1.6-3.5,3.5c0,0,0,0,0,0v9.8h-3.5V10.7H114v15.9h-3.5v-9.8c0.2-1.9-1.2-3.7-3.1-3.9
c-1.9-0.2-3.7,1.2-3.9,3.1c0,0.2,0,0.5,0,0.7v9.8h-3.4v-9.8c0-1.9-1.6-3.5-3.5-3.5s-3.5,1.6-3.5,3.5c0,0,0,0,0,0L93,26.5L93,26.5z"></path> <path d="M46.5,2.8h21v23.7h-5.2V12.7c0-2.9-2.4-5.3-5.3-5.3s-5.3,2.4-5.3,5.3l0,0l0,0v13.8h-5.2V2.8z"></path> <path d="M46.3,2l-1.6-2h24.4l-1.6,2H46.3z"></path> <polygon points="0,34.7 1.2,34.7 5,43.4 5,34.7 6.5,34.7 6.5,47.9 5.3,47.9 1.6,38.9 1.6,47.9 0,47.9 "></polygon> <polygon points="9.6,34.7 14.7,34.7 14.7,36 11.4,36 11.4,40.4 14.1,40.4 14.1,41.7 11.4,41.7 11.4,46.5 14.7,46.5 14.7,47.9
9.6,47.9 "></polygon> <polygon points="16.7,34.7 18.2,34.7 19.7,44.2 21.4,34.7 22.7,34.7 24.5,44.2 25.9,34.7 27.4,34.7 25.3,47.9 24,47.9 22.1,38.1
20.3,47.9 18.9,47.9 "></polygon> <polygon points="36.7,43.2 33.9,34.7 35.6,34.7 37.6,41 39.6,34.7 41.3,34.7 38.5,43.2 38.5,47.9 36.7,47.9 "></polygon> <path d="M44.1,46.9c-0.6-0.9-0.9-2.1-0.8-3.2v-5c-0.1-1.1,0.2-2.2,0.8-3.1c0.7-0.8,1.7-1.2,2.8-1.1c1-0.1,2.1,0.3,2.8,1.1
c0.6,0.9,0.9,2,0.8,3.1v5c0.1,1.1-0.2,2.2-0.8,3.2c-0.7,0.8-1.7,1.2-2.8,1.1C45.8,48.1,44.8,47.7,44.1,46.9 M48.2,45.9
c0.3-0.6,0.4-1.2,0.3-1.8v-5.7c0-0.6-0.1-1.2-0.3-1.8c-0.3-0.4-0.9-0.7-1.4-0.6c-0.5-0.1-1.1,0.1-1.4,0.6c-0.3,0.6-0.4,1.2-0.3,1.8
v5.8c-0.1,0.6,0.1,1.3,0.4,1.9c0.3,0.4,0.9,0.7,1.4,0.6C47.4,46.7,47.9,46.4,48.2,45.9"></path> <path d="M53.2,34.7h2.7c1-0.1,2.1,0.2,2.9,0.8c0.7,0.7,1,1.7,0.9,2.7c0,1.7-0.5,2.7-1.6,3.1l1.9,6.6h-1.8l-1.7-6.2h-1.4v6.2h-1.8
L53.2,34.7z M55.8,40.4c0.6,0.1,1.2-0.1,1.7-0.5c0.4-0.5,0.6-1.1,0.5-1.7c0-0.4,0-0.9-0.2-1.3c-0.1-0.3-0.3-0.5-0.6-0.7
c-0.4-0.2-0.9-0.2-1.3-0.2h-0.8v4.3L55.8,40.4z"></path> <polygon points="62.7,34.7 64.5,34.7 64.5,40.9 67.5,34.7 69.2,34.7 66.6,40.5 69.7,47.9 67.9,47.9 65.3,41.7 64.5,43.2 64.5,47.9
62.7,47.9 "></polygon> <path d="M77,47c-0.6-0.8-1-1.8-1-2.8l1.6-0.4c0,0.7,0.2,1.4,0.5,2c0.3,0.5,0.8,0.8,1.4,0.8c0.4,0,0.8-0.1,1.1-0.4
c0.3-0.3,0.4-0.8,0.4-1.2c0-0.5-0.1-0.9-0.3-1.3c-0.3-0.4-0.7-0.8-1.1-1.2l-2.2-2c-0.4-0.3-0.8-0.8-1-1.3c-0.2-0.5-0.3-1.1-0.3-1.7
c0-0.8,0.3-1.6,0.8-2.2c1.4-1.1,3.3-1.1,4.6,0c0.6,0.7,1,1.6,1,2.6l-1.6,0.4c0-0.6-0.2-1.2-0.4-1.8c-0.3-0.4-0.8-0.7-1.3-0.6
c-0.4,0-0.8,0.1-1.1,0.4c-0.3,0.3-0.4,0.7-0.4,1.1c0,0.3,0.1,0.7,0.2,1c0.2,0.3,0.4,0.6,0.7,0.8l2.2,2c0.5,0.5,1,1,1.4,1.7
c0.3,0.6,0.5,1.3,0.5,2c0,0.9-0.3,1.7-0.9,2.3c-0.6,0.6-1.4,0.9-2.3,0.8C78.6,48.1,77.6,47.7,77,47"></path> <polygon points="86.5,36 84.3,36 84.3,34.7 90.5,34.7 90.5,36 88.3,36 88.3,47.9 86.5,47.9 "></polygon> <path d="M94.8,34.7h1.8l2.8,13.2h-1.7L97,44.5h-2.7l-0.6,3.3H92L94.8,34.7z M96.8,43.2l-1.1-5.9l-1.1,5.9H96.8z"></path> <polygon points="102.6,36 100.4,36 100.4,34.7 106.6,34.7 106.6,36 104.4,36 104.4,47.9 102.6,47.9 "></polygon> <polygon points="108.9,34.7 114,34.7 114,36 110.7,36 110.7,40.4 113.3,40.4 113.3,41.7 110.7,41.7 110.7,46.5 114,46.5 114,47.9
108.9,47.9 "></polygon> <polygon points="0.1,72.5 1.9,72.5 1.9,64.7 5.5,64.7 5.5,63.3 1.9,63.3 1.9,57.4 6.2,57.4 6.2,56 0.1,56 "></polygon> <path d="M11,56L7.5,72.5h1.8l0.8-4.3h3.6l0.8,4.3h1.8L12.8,56H11z M13.5,66.8h-3.1l1.6-8L13.5,66.8z"></path> <rect x="19.2" y="56" width="1.8" height="16.5"></rect> <path d="M32.3,62.9c0.4-0.8,0.5-1.7,0.5-2.6c0.1-1.1-0.3-2.3-1-3.2c-0.8-0.8-2-1.2-3.2-1.1h-3.8v16.5h1.8v-8H29l2.4,7.9v0.1h1.8
l-2.5-8.3C31.3,64,32,63.6,32.3,62.9 M31.1,60.3c0.1,0.8-0.1,1.5-0.6,2.2c-0.5,0.5-1.2,0.8-1.9,0.7h-1.9v-5.7h2
c0.7-0.1,1.4,0.2,1.9,0.7C31,58.7,31.1,59.5,31.1,60.3"></path> <path d="M40.3,65.8h2.4v1.8c0.1,1-0.1,1.9-0.5,2.8c-0.4,0.6-1.1,0.9-1.9,0.9c-0.8,0.1-1.5-0.2-1.9-0.9c-0.4-0.9-0.6-1.8-0.5-2.8V61
c0-0.7,0.1-1.3,0.2-2c0.1-0.5,0.4-0.9,0.7-1.2c0.5-0.3,1-0.5,1.5-0.4c0.7-0.1,1.4,0.2,1.8,0.8c0.4,0.8,0.6,1.7,0.5,2.6v0.7h1.7v-0.7
c0.1-1.3-0.2-2.5-0.9-3.6c-0.8-0.9-1.9-1.3-3.1-1.2c-1.3-0.1-2.5,0.4-3.3,1.3c-0.7,1.2-1,2.5-1,3.9v6.3c-0.1,1.4,0.2,2.7,0.9,3.9
l0,0c0.8,1,2,1.5,3.2,1.4c1.2,0.1,2.4-0.6,2.9-1.7l0.2,1.4h1.2v-8.1h-4.1V65.8z"></path> <path d="M55.4,62.9c0.4-0.8,0.5-1.7,0.5-2.6c0.1-1.1-0.3-2.3-1-3.2c-0.9-0.8-2-1.2-3.2-1.1h-3.8v16.6h1.8v-8H52l2.4,8h1.8l-2.5-8.3
C54.4,64.1,55.1,63.6,55.4,62.9 M49.7,57.5h1.9c0.7-0.1,1.4,0.1,1.9,0.6c0.4,0.7,0.6,1.4,0.5,2.2c0.1,0.8-0.1,1.5-0.5,2.2
c-0.5,0.5-1.2,0.8-1.9,0.7h-1.9L49.7,57.5z"></path> <path d="M63.4,55.9c-1.3-0.1-2.5,0.4-3.3,1.3c-0.7,1.1-1.1,2.4-1,3.7v6.7c-0.1,1.3,0.3,2.7,1,3.8c0.8,1,2.1,1.5,3.3,1.4
c1.3,0.1,2.5-0.4,3.3-1.3c0.7-1.1,1.1-2.4,1-3.8v-6.7c0.1-1.3-0.3-2.6-1-3.7C65.9,56.2,64.7,55.8,63.4,55.9 M60.9,60.6
c-0.1-0.9,0.1-1.7,0.5-2.5c0.5-0.6,1.2-0.9,2-0.8c0.7-0.1,1.5,0.2,2,0.8c0.4,0.8,0.6,1.6,0.5,2.5v7.4c0.1,0.9-0.1,1.7-0.5,2.5
c-0.5,0.6-1.2,0.9-1.9,0.8c-0.8,0.1-1.5-0.2-2-0.8c-0.4-0.8-0.6-1.6-0.5-2.5L60.9,60.6z"></path> <path d="M77.8,68c0,0.8-0.2,1.7-0.6,2.4c-1.1,1.1-2.8,1.1-3.9,0.1c0,0,0,0-0.1-0.1c-0.4-0.7-0.6-1.6-0.5-2.4V56H71v12
c-0.1,1.2,0.2,2.5,0.9,3.5c0.9,0.9,2.1,1.4,3.4,1.2c1.2,0.1,2.5-0.4,3.3-1.3c0.7-1,1.1-2.3,1-3.5V56h-1.8V68z"></path> <polygon points="89.4,68.1 84.5,56.1 84.4,56 83.1,56 83.1,72.5 84.7,72.5 84.7,60.3 89.7,72.5 91,72.5 91,56 89.4,56 "></polygon> <path d="M98.4,56h-3.7v16.5h3.8c1.3,0.1,2.6-0.4,3.4-1.3c0.7-1.1,1.1-2.5,1-3.8v-6.4c0.1-1.3-0.3-2.6-1-3.6
C101,56.3,99.7,55.9,98.4,56 M101.1,61.1v6.1c0,0.7,0,1.5-0.2,2.2c-0.1,0.5-0.4,1-0.7,1.3c-0.5,0.4-1.1,0.5-1.8,0.5h-1.9V57.5h1.9
c0.6,0,1.2,0.1,1.7,0.4c0.4,0.3,0.7,0.7,0.8,1.1C101.1,59.7,101.1,60.4,101.1,61.1"></path> <path d="M113.2,66.5c-0.5-0.8-1.1-1.5-1.8-2.2l-2.9-2.7c-0.3-0.3-0.6-0.7-0.9-1.1c-0.2-0.4-0.3-0.8-0.3-1.2c0-0.6,0.2-1.1,0.6-1.5
c0.4-0.4,1-0.5,1.6-0.5c0.7-0.1,1.4,0.2,1.8,0.8c0.4,0.7,0.7,1.5,0.7,2.4v0.2l1.6-0.4v-0.1c0-1.2-0.4-2.3-1.2-3.2
c-0.8-0.7-1.8-1.1-2.8-1c-1,0-2,0.3-2.8,1c-0.7,0.7-1.1,1.7-1,2.7c0,0.6,0.1,1.2,0.4,1.8c0.3,0.6,0.7,1.1,1.2,1.5l2.9,2.8
c0.6,0.5,1.1,1.1,1.5,1.7c0.3,0.5,0.5,1.1,0.4,1.7c0,1.5-0.7,2.2-2.2,2.2c-0.7,0.1-1.4-0.3-1.8-0.9c-0.4-0.8-0.7-1.7-0.8-2.6v-0.2
l-1.6,0.5v0.1c0,1.2,0.4,2.4,1.2,3.3c0.8,0.8,1.9,1.3,3,1.2c1,0,2-0.3,2.8-1c0.7-0.7,1.1-1.8,1.1-2.8
C113.9,68.1,113.6,67.2,113.2,66.5"></path> <g><path d="M111.9,5.3c-1.1,0-2.1,0.9-2.1,2.1c0,1.1,0.9,2.1,2.1,2.1c1.1,0,2.1-0.9,2.1-2.1C114,6.2,113,5.3,111.9,5.3z M111.9,9.1
c-1,0-1.8-0.8-1.8-1.8c0-1,0.8-1.8,1.8-1.8c1,0,1.8,0.8,1.8,1.8C113.7,8.3,112.9,9.1,111.9,9.1z"></path> <g><path d="M110.9,7.9c-0.1,0-0.2-0.1-0.2-0.1l0.1-0.2c0,0,0.1,0.1,0.2,0.1c0.1,0,0.1,0,0.2,0c0.1,0,0.1,0,0.2,0c0,0,0.1-0.1,0.1-0.1
c0,0,0,0,0-0.1c0,0,0,0-0.1,0c0,0-0.1,0-0.1,0c-0.1,0-0.2,0-0.2-0.1c-0.1,0-0.1-0.1-0.1-0.1c0,0-0.1-0.1-0.1-0.2
c0-0.1,0-0.1,0.1-0.2c0-0.1,0.1-0.1,0.2-0.1c0.1,0,0.2,0,0.3,0c0.1,0,0.1,0,0.2,0c0.1,0,0.1,0,0.2,0.1l-0.1,0.2
C111.4,7,111.3,7,111.2,7c-0.1,0-0.1,0-0.2,0c0,0-0.1,0.1-0.1,0.1c0,0,0,0.1,0.1,0.1c0,0,0.1,0,0.2,0.1c0.1,0,0.2,0,0.2,0.1
c0.1,0,0.1,0.1,0.1,0.1c0,0,0.1,0.1,0.1,0.2c0,0.1,0,0.1-0.1,0.2c0,0.1-0.1,0.1-0.2,0.1c-0.1,0-0.2,0-0.3,0
C111.1,8,111,7.9,110.9,7.9z"></path> <path d="M112.9,7.9l0-0.7l-0.3,0.6h-0.1l-0.3-0.5v0.7h-0.2V6.8h0.2l0.4,0.7l0.4-0.7h0.2l0,1.1H112.9z"></path></g></g></svg>