<svg width="79" height="50" viewBox="0 0 79 50" fill="none" xmlns="http://www.w3.org/2000/svg">
<path id="Union" fill-rule="evenodd" clip-rule="evenodd" d="M46.3517 1.37339L47.4504 0H30.6951L31.7938 1.37339H46.3517ZM46.3518 1.92261V18.1972H42.781V8.72087C42.781 6.72946 41.1329 5.0814 39.1415 5.0814C37.1501 5.0814 35.5021 6.72946 35.5021 8.72087V18.1972H31.9313V1.92261H46.3518ZM7.27895 11.399V18.1286H9.75104V11.193C9.81971 9.88824 10.9871 8.85821 12.2918 8.92688C13.5965 8.99554 14.6266 10.1629 14.5579 11.4676V18.1286H16.9613V11.5363V11.5363C16.9613 11.3303 16.9613 11.0556 17.03 10.8495C17.236 9.6135 18.3347 8.7208 19.5707 8.78947C20.8755 8.85814 21.9055 10.0255 21.8368 11.3302V18.1285H24.1716V10.9182C24.3089 9.6135 25.545 8.65213 26.8497 8.78947C28.1544 8.92681 29.1158 10.1629 28.9784 11.4676V18.1972H31.3819V7.34741H0V18.1972L2.47209 18.1285V11.3989C2.47209 10.0942 3.5708 8.99548 4.87552 8.99548C6.18024 8.99548 7.27895 10.0943 7.27895 11.399ZM47.0385 18.1289H49.4419V11.3993C49.4419 10.0946 50.5406 8.99588 51.8453 8.99588C53.15 8.99588 54.2487 10.0946 54.2487 11.3993V18.1289H56.6522V11.468C56.6522 11.1933 56.6522 10.85 56.7895 10.5066C57.1329 9.47657 58.2316 8.78987 59.3989 8.99588C60.635 9.13322 61.5277 10.2319 61.459 11.468V18.1976H63.8624L63.9311 11.468C63.9311 10.1633 65.0298 9.06455 66.3345 9.06455C67.6393 9.06455 68.738 10.1633 68.738 11.468V18.1976H71.0727V10.9873C71.2101 9.68258 72.4461 8.7212 73.7508 8.85854C75.0555 8.99588 76.0169 10.2319 75.8796 11.5366V18.2662H78.283V7.34782H47.0385V18.1289ZM0.824032 23.8285L3.43346 29.8028V23.8285H4.4635V32.8929H3.63947L1.09871 26.7126V32.8929H0V23.8285H0.824032ZM10.0943 24.7212V23.8285H6.5922V32.8929H10.0943V31.9315H7.82825V28.6354H9.68232V27.7427H7.82825V24.7212H10.0943ZM17.7853 23.8285H18.8153L17.3733 32.8929H16.4806L15.1758 26.1633L13.9398 32.8929H12.9784L11.4677 23.8285H12.4977L13.5278 30.3521L14.6951 23.8285H15.5878L16.8239 30.3521L17.7853 23.8285ZM26.4377 32.8929V29.6654L28.3604 23.8285H27.1931L25.8197 28.1547L24.4463 23.8285H23.2789L25.2016 29.6654V32.8929H26.4377ZM34.678 26.5749V30.0084C34.7466 30.7637 34.5406 31.5191 34.1286 32.2058C33.6479 32.7551 32.9612 33.0298 32.2059 32.9611C31.4505 33.0298 30.7638 32.7551 30.2831 32.2058C29.8711 31.5878 29.6651 30.7637 29.7338 30.0084V26.5749C29.6651 25.8195 29.8711 25.0642 30.2831 24.4462C30.7638 23.8968 31.4505 23.6221 32.2059 23.6908C32.8926 23.6221 33.6479 23.8968 34.1286 24.4462C34.5406 25.0642 34.7466 25.8195 34.678 26.5749ZM32.2059 32.0684C32.5492 32.0684 32.8926 31.8624 33.0986 31.5191C33.3046 31.1071 33.3732 30.6951 33.3046 30.283V26.3689C33.3046 25.9569 33.2359 25.5449 33.0986 25.1328C32.8926 24.8582 32.4805 24.6522 32.1372 24.7208C31.7939 24.6522 31.3818 24.7895 31.1758 25.1328C30.9698 25.5449 30.9012 25.9569 30.9698 26.3689V30.3517C30.9012 30.7637 31.0385 31.2444 31.2445 31.6564C31.4505 31.9311 31.8625 32.1371 32.2059 32.0684ZM39.8968 28.3603C40.6521 28.0856 40.9955 27.3989 40.9955 26.2315C41.0642 25.5448 40.8581 24.8582 40.3775 24.3775C39.8281 23.9655 39.0727 23.7594 38.3861 23.8281H36.532L36.6007 32.8925H37.8367V28.635H38.7981L39.9654 32.8925H41.2015L39.8968 28.3603ZM39.4848 27.3989C39.1414 27.6736 38.7294 27.8109 38.3174 27.7423L37.8367 27.6736V24.7208H38.3861C38.6607 24.7208 39.0041 24.7208 39.2788 24.8582C39.4848 24.9955 39.6221 25.1328 39.6908 25.3388C39.8281 25.6135 39.8281 25.9569 39.8281 26.2315C39.8968 26.6436 39.7594 27.0556 39.4848 27.3989ZM46.3517 23.8285H47.5191L45.7337 27.8113L47.8625 32.8929H46.6264L44.841 28.6354L44.2917 29.6654V32.8929H43.0556V23.8285H44.2917V28.086L46.3517 23.8285ZM55.4847 28.2919L53.974 26.9185C53.768 26.7812 53.6307 26.5752 53.4933 26.3692C53.4247 26.1632 53.356 25.8885 53.356 25.6825C53.356 25.4078 53.4247 25.1331 53.6307 24.9271C53.8367 24.7211 54.1114 24.6524 54.386 24.6524C54.7294 24.5838 55.0727 24.7898 55.2787 25.0645L55.2788 25.0645C55.4161 25.4765 55.5534 25.8885 55.5534 26.3005L56.6521 26.0258C56.6521 25.3391 56.3774 24.7211 55.9654 24.2404C55.0727 23.4851 53.768 23.4851 52.8066 24.2404C52.4633 24.6524 52.2573 25.2018 52.2573 25.7512C52.2573 26.1632 52.326 26.5752 52.4633 26.9185C52.6006 27.2619 52.8753 27.6052 53.15 27.8112L54.6607 29.1846L54.6608 29.1847C54.9354 29.4593 55.2101 29.734 55.4161 30.0087C55.5534 30.2833 55.6221 30.558 55.6221 30.9014C55.6221 31.176 55.5534 31.5194 55.3474 31.7254C55.1414 31.9314 54.8667 32.0001 54.592 32.0001C54.18 32.0001 53.8367 31.7941 53.6307 31.4507C53.4247 31.0387 53.2873 30.558 53.2873 30.0773L52.1886 30.352C52.1886 31.0387 52.4633 31.7254 52.8753 32.2747C53.2873 32.7554 53.974 33.0301 54.592 32.9614C55.2101 33.0301 55.7594 32.8241 56.1714 32.4121C56.5835 32.0001 56.7895 31.4507 56.7895 30.8327C56.7895 30.352 56.6521 29.8713 56.4461 29.4593C56.1714 28.9786 55.8281 28.6353 55.4847 28.2919ZM60.6351 24.7212V32.8929H59.399V24.7212H57.8883V23.8285H62.1458V24.7212H60.6351ZM67.0899 32.8929H68.2573L66.3345 23.8285H65.0985L63.1758 32.8242H64.3431L64.7552 30.5581H66.6092L67.0899 32.8929ZM64.9612 29.6654L65.7165 25.6139L66.4719 29.6654H64.9612ZM68.944 23.8285H73.2015V24.7212H71.6908V32.8929H70.4547V24.7212H68.944V23.8285ZM74.7809 32.8929H78.283V31.9315H76.0169V28.6354H77.8023V27.7427H76.0169V24.7212H78.283V23.8285H74.7809V32.8929ZM1.30471 49.7854H0.0686646V38.455H4.25749V39.4164H1.30471V43.4679H3.77681V44.4292H1.30471V49.7854ZM7.55367 38.455L5.15025 49.7854H6.3863L6.93565 46.8326H9.40774L9.9571 49.7854H11.1931L8.78972 38.455H7.55367ZM7.14166 45.8713L8.24037 40.3777L9.27041 45.8713H7.14166ZM13.1845 38.455H14.4206V49.7854H13.1845V38.455ZM22.1802 43.193C22.4549 42.6436 22.5236 42.0256 22.5236 41.4076C22.5922 40.6522 22.3176 39.8282 21.8369 39.2101C21.2875 38.6608 20.4635 38.3861 19.6395 38.4548H17.03V49.7852H18.2661V44.2917H19.9141L21.5622 49.7166V49.7852H22.7983L21.0815 44.0857C21.4935 43.9483 21.9742 43.6737 22.1802 43.193ZM19.6395 43.399H18.3347V39.4848H19.7081C20.1888 39.4162 20.6695 39.6222 21.0128 39.9655C21.2875 40.3089 21.3562 40.8582 21.3562 41.4076C21.4249 41.9569 21.2875 42.4376 20.9442 42.9183C20.6008 43.2616 20.1201 43.4676 19.6395 43.399ZM29.3218 45.1843H27.6737V44.2229H30.4891V49.7851H29.6651L29.5278 48.8238C29.1844 49.5791 28.3604 50.0598 27.5364 49.9912C26.7123 50.0598 25.8883 49.7165 25.3389 49.0298C24.8583 48.2058 24.6523 47.3131 24.7209 46.3517V42.0255C24.7209 41.0642 24.9269 40.1714 25.4076 39.3474C25.957 38.7294 26.781 38.386 27.6737 38.4547C28.4977 38.386 29.2531 38.6607 29.8025 39.2787C30.2831 40.0341 30.4891 40.8581 30.4205 41.7508V42.2315H29.2531V41.7508C29.3218 41.1328 29.1844 40.5148 28.9097 39.9654C28.6351 39.5534 28.1544 39.3474 27.6737 39.4161C27.3304 39.3474 26.987 39.4848 26.6437 39.6908C26.4377 39.8968 26.2316 40.1714 26.163 40.5148L26.1399 40.6746L26.1399 40.6747C26.0797 41.0891 26.0256 41.4616 26.0256 41.8882V46.4204C25.957 47.107 26.0943 47.7251 26.369 48.3431C26.6437 48.8238 27.1243 49.0298 27.6737 48.9611C28.2231 48.9611 28.7037 48.7551 28.9784 48.3431C29.2531 47.7251 29.3904 47.107 29.3218 46.4204V45.1843ZM38.0428 43.193C38.3174 42.6436 38.3861 42.0256 38.3861 41.4076C38.4548 40.6522 38.1801 39.8282 37.6994 39.2101C37.0814 38.6608 36.326 38.3861 35.502 38.4548H32.8926V49.8539H34.1286V44.3603H35.708L37.3561 49.8539H38.5921L36.8754 44.1543C37.3561 44.017 37.8367 43.6737 38.0428 43.193ZM35.4333 43.399H34.1286V39.4848H35.4333C35.914 39.4162 36.3947 39.5535 36.738 39.8968C37.0127 40.3775 37.1501 40.8582 37.0814 41.4076C37.1501 41.9569 37.0127 42.4376 36.738 42.9183C36.3947 43.2616 35.914 43.4676 35.4333 43.399ZM41.2703 39.2789C41.8196 38.6609 42.6436 38.3176 43.5363 38.3862C44.429 38.3176 45.2531 38.5922 45.8024 39.3476C46.2831 40.103 46.5578 40.9957 46.4891 41.8884V46.4892C46.5578 47.4506 46.2831 48.3433 45.8024 49.0986C45.2531 49.7167 44.429 50.06 43.5363 49.9913C42.7123 50.06 41.8196 49.7167 41.2703 49.03C40.7896 48.2746 40.5149 47.3132 40.5836 46.4205V41.8197C40.5149 40.927 40.7896 40.0343 41.2703 39.2789ZM43.605 48.9613C44.0857 49.03 44.5664 48.824 44.9097 48.4119C45.1844 47.8626 45.3217 47.3132 45.2531 46.6952V41.6137C45.3217 40.9957 45.1844 40.4463 44.9097 39.8969C44.5664 39.4849 44.017 39.2789 43.5363 39.3476C42.987 39.2789 42.5063 39.4849 42.163 39.8969C41.8883 40.4463 41.7509 40.9957 41.8196 41.6137L41.8883 46.6952C41.8196 47.3132 41.9569 47.8626 42.2316 48.4119C42.575 48.824 43.0557 49.03 43.605 48.9613ZM53.4247 46.6953C53.4247 47.2447 53.2873 47.8627 53.0126 48.3434C52.2573 49.0987 51.0899 49.0987 50.3345 48.412L50.2659 48.3434C49.9912 47.8627 49.8539 47.2447 49.9225 46.6953V38.455H48.7551V46.6953C48.6865 47.5193 48.8925 48.412 49.3732 49.0987C49.9912 49.7168 50.8152 50.0601 51.7079 49.9228C52.532 49.9914 53.4247 49.6481 53.974 49.0301C54.4547 48.3434 54.7294 47.4507 54.6607 46.6266V38.455H53.4247V46.6953ZM58.0256 38.5237L61.3904 46.764V38.455H62.4891V49.7854H61.5964L58.1629 41.4078V49.7854H57.0642V38.455H57.9569L58.0256 38.5237ZM67.5706 38.455H65.0298V49.7854H67.6392C68.5319 49.8541 69.4246 49.5107 69.974 48.8927C70.4547 48.1374 70.7294 47.176 70.6607 46.2833V41.8885C70.7294 40.9958 70.4547 40.1031 69.974 39.4164C69.356 38.661 68.4633 38.3863 67.5706 38.455ZM69.4246 46.146C69.4246 46.6266 69.4246 47.176 69.2873 47.6567C69.2186 48 69.0126 48.3434 68.8066 48.5494C68.4633 48.8241 68.0513 48.8927 67.5706 48.8927H66.2658V39.485H67.5706C67.9826 39.485 68.3946 39.5537 68.7379 39.7597C69.0126 39.9657 69.2186 40.2404 69.2873 40.5151C69.4246 40.9958 69.4246 41.4764 69.4246 41.9571V46.146ZM74.5062 42.3003L76.4976 44.1544C76.9783 44.6351 77.3903 45.1158 77.7337 45.6651C78.0083 46.1458 78.2144 46.7638 78.2144 47.3819C78.2144 48.0686 77.9397 48.8239 77.459 49.3046C76.9096 49.7853 76.2229 49.9913 75.5363 49.9913C74.7809 50.06 74.0255 49.7166 73.4762 49.1673C72.9268 48.5492 72.6521 47.7252 72.6521 46.9012V46.8325L73.7508 46.4892V46.6265C73.8195 47.2445 74.0255 47.8626 74.3002 48.4119C74.5749 48.8239 75.0556 49.0986 75.5363 49.0299C76.5663 49.0299 77.047 48.5492 77.047 47.5192C77.1156 47.1072 76.9783 46.6952 76.7723 46.3518C76.4976 45.9398 76.1543 45.5278 75.7423 45.1845L73.7508 43.2617C73.4075 42.987 73.1328 42.6437 72.9268 42.2317C72.7208 41.8197 72.6521 41.4076 72.6521 40.9956C72.5835 40.3089 72.8582 39.6222 73.3388 39.1416C73.8882 38.6609 74.5749 38.4549 75.2616 38.4549C75.9483 38.3862 76.635 38.6609 77.1843 39.1416C77.7337 39.7596 78.0083 40.5149 78.0083 41.339V41.4076L76.9096 41.6823V41.545C76.9096 40.927 76.7036 40.3776 76.429 39.8969C76.1543 39.4849 75.6736 39.2789 75.1929 39.3476C74.7809 39.3476 74.3689 39.4162 74.0942 39.6909C73.8195 39.9656 73.6822 40.3089 73.6822 40.7209C73.6822 40.9956 73.7508 41.2703 73.8882 41.545C74.0942 41.8197 74.3002 42.0943 74.5062 42.3003ZM76.8409 6.52343C77.5963 6.52343 78.283 5.90541 78.283 5.08138C78.283 4.25735 77.5963 3.63932 76.8409 3.63932C76.0856 3.63932 75.3989 4.25735 75.3989 5.08138C75.3989 5.83674 76.0169 6.52343 76.8409 6.52343ZM76.8409 3.77666C77.5276 3.77666 78.077 4.32602 78.077 5.01271C78.077 5.6994 77.5276 6.24876 76.8409 6.24876C76.1542 6.24876 75.6049 5.6994 75.6049 5.01271C75.6049 4.32602 76.1542 3.77666 76.8409 3.77666ZM76.7723 4.8752C76.4976 4.80653 76.4289 4.80653 76.3603 4.80653H76.2229L76.1543 4.8752C76.1543 4.82942 76.1772 4.78364 76.2229 4.73786C76.2229 4.66919 76.2916 4.66919 76.3603 4.66919H76.7036C76.7494 4.66919 76.7952 4.69208 76.841 4.73786L76.7723 4.8752ZM76.1678 4.91264C76.1662 4.90789 76.164 4.90345 76.1618 4.89907L76.1587 4.89267C76.1553 4.88273 76.1543 4.87549 76.1543 4.87549C76.1543 4.88165 76.1562 4.88721 76.1587 4.89267C76.1608 4.89868 76.1637 4.90567 76.1678 4.91264ZM76.3602 5.01311C76.4288 5.01311 76.4975 5.01311 76.4975 5.08178C76.5662 5.08178 76.5662 5.15045 76.5662 5.15045H76.4289C76.3602 5.15045 76.2915 5.15045 76.2915 5.08178C76.2228 5.08178 76.2228 5.01311 76.2228 5.01311C76.2228 5.01311 76.1851 4.96594 76.1677 4.91292C76.1769 4.92858 76.1913 4.94444 76.2228 4.94444C76.2228 4.94444 76.2915 4.94444 76.3602 5.01311ZM76.5662 5.21882L76.5662 5.15045L76.5662 5.15015C76.5662 5.15015 76.6349 5.21882 76.6349 5.28749C76.6349 5.33326 76.612 5.37904 76.5662 5.42482C76.5662 5.49349 76.4975 5.49349 76.4289 5.49349H76.2229C76.2915 5.49349 76.2229 5.42482 76.1542 5.42482C76.0855 5.42482 76.0168 5.35615 76.0168 5.35615L76.0855 5.21882C76.0855 5.21882 76.1542 5.28749 76.2229 5.28749H76.4975L76.5662 5.21882ZM77.2529 5.35588L77.0469 5.01254V5.49322H76.9096V4.66919H77.0469L77.3216 5.14987L77.5963 4.66919H77.7336V5.42455H77.5276V4.94387L77.3216 5.35588H77.2529Z" fill="white"/>
</svg>
