<svg width="28" height="25" viewBox="0 0 28 25" fill="none" xmlns="http://www.w3.org/2000/svg">
<path d="M10.665 22.7529H16.835V16.0908C16.835 15.8389 16.7588 15.6367 16.6064 15.4844C16.46 15.332 16.2607 15.2559 16.0088 15.2559H11.5C11.248 15.2559 11.0459 15.332 10.8936 15.4844C10.7412 15.6367 10.665 15.8389 10.665 16.0908V22.7529ZM3.68652 22.1641V13.0586L13.0381 5.22754C13.2607 5.03418 13.4951 4.9375 13.7412 4.9375C13.9873 4.93164 14.2246 5.02832 14.4531 5.22754L23.8135 13.0762V22.1641C23.8135 22.9434 23.585 23.5527 23.1279 23.9922C22.6709 24.4316 22.0439 24.6514 21.2471 24.6514H6.24414C5.44727 24.6514 4.82031 24.4316 4.36328 23.9922C3.91211 23.5527 3.68652 22.9434 3.68652 22.1641ZM1.19922 12.7949C0.882812 12.7949 0.633789 12.7012 0.452148 12.5137C0.270508 12.3203 0.179688 12.0977 0.179688 11.8457C0.179688 11.7051 0.211914 11.5674 0.276367 11.4326C0.34082 11.292 0.44043 11.166 0.575195 11.0547L12.2822 1.22852C12.7393 0.841797 13.2285 0.648438 13.75 0.648438C14.2715 0.648438 14.7607 0.841797 15.2178 1.22852L26.9248 11.0547C27.0596 11.166 27.1592 11.292 27.2236 11.4326C27.2881 11.5674 27.3203 11.7051 27.3203 11.8457C27.3203 12.0977 27.2295 12.3203 27.0479 12.5137C26.8721 12.7012 26.623 12.7949 26.3008 12.7949C26.1484 12.7949 26.0049 12.7598 25.8701 12.6895C25.7412 12.6191 25.6152 12.5342 25.4922 12.4346L14.2334 2.98633C14.0811 2.85742 13.9199 2.79297 13.75 2.79297C13.5801 2.79297 13.4189 2.85742 13.2666 2.98633L2.00781 12.4346C1.88477 12.5342 1.75586 12.6191 1.62109 12.6895C1.49219 12.7598 1.35156 12.7949 1.19922 12.7949ZM21.0713 6.72168V3.98828C21.0713 3.75977 21.1416 3.57812 21.2822 3.44336C21.4287 3.30273 21.6162 3.23242 21.8447 3.23242H23.2334C23.4678 3.23242 23.6553 3.30273 23.7959 3.44336C23.9365 3.57812 24.0068 3.75977 24.0068 3.98828V9.18262L21.0713 6.72168Z" fill="#007AFF"/>
</svg>
