<svg width="25" height="23" viewBox="0 0 25 23" fill="none" xmlns="http://www.w3.org/2000/svg">
<path d="M0.766602 21.085V5.82715C0.766602 5.43457 0.848633 5.10059 1.0127 4.8252C1.18262 4.54395 1.44336 4.30664 1.79492 4.11328L6.99805 1.09863C7.14453 1.02246 7.28516 0.952148 7.41992 0.887695C7.56055 0.823242 7.69238 0.767578 7.81543 0.720703V19.626L3.10449 22.1836C2.75879 22.3711 2.43945 22.4648 2.14648 22.4648C1.73633 22.4648 1.40234 22.3447 1.14453 22.1045C0.892578 21.8701 0.766602 21.5303 0.766602 21.085ZM9.32715 19.3975V0.615234C9.46191 0.644531 9.60254 0.694336 9.74902 0.764648C9.89551 0.829102 10.042 0.905273 10.1885 0.993164L15.5059 4.21875V22.8076C15.3828 22.7783 15.2627 22.7373 15.1455 22.6846C15.0342 22.6318 14.9199 22.5732 14.8027 22.5088L9.32715 19.3975ZM17.0352 22.7549V3.89355L21.79 1.27441C22.1475 1.0752 22.4844 0.975586 22.8008 0.975586C23.2285 0.975586 23.5713 1.09277 23.8291 1.32715C24.0928 1.56152 24.2246 1.90723 24.2246 2.36426V17.5605C24.2246 17.9648 24.1396 18.3047 23.9697 18.5801C23.7998 18.8555 23.5391 19.0957 23.1875 19.3008L17.4395 22.5615C17.375 22.6084 17.3076 22.6465 17.2373 22.6758C17.167 22.7109 17.0996 22.7373 17.0352 22.7549Z" fill="#999999"/>
</svg>
