<svg width="30" height="21" viewBox="0 0 30 21" fill="none" xmlns="http://www.w3.org/2000/svg">
<path d="M0.955078 15.998V5.30176C0.955078 5.04395 1.01074 4.82715 1.12207 4.65137C1.2334 4.46973 1.40039 4.32617 1.62305 4.2207C2.05664 4.00977 2.43164 3.78418 2.74805 3.54395C3.07031 3.29785 3.35742 3.00488 3.60938 2.66504C3.86719 2.31934 4.11621 1.89453 4.35645 1.39062C4.58496 0.957031 4.93945 0.740234 5.41992 0.740234H24.5713C25.0518 0.740234 25.4062 0.957031 25.6348 1.39062C25.875 1.89453 26.124 2.31934 26.3818 2.66504C26.6396 3.00488 26.9268 3.29785 27.2432 3.54395C27.5596 3.78418 27.9346 4.00977 28.3682 4.2207C28.5967 4.32617 28.7637 4.46973 28.8691 4.65137C28.9805 4.82715 29.0361 5.04395 29.0361 5.30176V15.998C29.0361 16.2559 28.9805 16.4756 28.8691 16.6572C28.7637 16.8389 28.5967 16.9824 28.3682 17.0879C27.9346 17.293 27.5596 17.5186 27.2432 17.7646C26.9268 18.0107 26.6396 18.3037 26.3818 18.6436C26.124 18.9834 25.875 19.4053 25.6348 19.9092C25.4062 20.3428 25.0518 20.5596 24.5713 20.5596H5.41992C4.93945 20.5596 4.58496 20.3428 4.35645 19.9092C4.11621 19.4053 3.86719 18.9834 3.60938 18.6436C3.35742 18.3037 3.07031 18.0107 2.74805 17.7646C2.43164 17.5186 2.05664 17.293 1.62305 17.0879C1.40039 16.9824 1.2334 16.8389 1.12207 16.6572C1.01074 16.4756 0.955078 16.2559 0.955078 15.998ZM5.63965 15.6992C5.63965 16.0156 5.73633 16.2734 5.92969 16.4727C6.12305 16.666 6.37793 16.7627 6.69434 16.7627H23.3057C23.6221 16.7627 23.877 16.666 24.0703 16.4727C24.2637 16.2734 24.3604 16.0156 24.3604 15.6992V5.61816C24.3604 5.30176 24.2637 5.04688 24.0703 4.85352C23.877 4.66016 23.6221 4.56348 23.3057 4.56348H6.69434C6.37793 4.56348 6.12305 4.66016 5.92969 4.85352C5.73633 5.04688 5.63965 5.30176 5.63965 5.61816V15.6992ZM7.01953 8.16699V6.20703C7.01953 6.125 7.04004 6.06055 7.08105 6.01367C7.12793 5.96094 7.19238 5.93457 7.27441 5.93457H8.56641V8.16699H7.01953ZM7.01953 11.7793V9.54688H8.56641V11.7793H7.01953ZM7.01953 15.1104V13.1592H8.56641V15.374H7.2832C7.19531 15.374 7.12793 15.3506 7.08105 15.3037C7.04004 15.2568 7.01953 15.1924 7.01953 15.1104ZM21.4336 8.16699V5.93457H22.7168C22.7988 5.93457 22.8604 5.96094 22.9014 6.01367C22.9482 6.06055 22.9717 6.125 22.9717 6.20703V8.16699H21.4336ZM21.4336 11.7793V9.54688H22.9717V11.7793H21.4336ZM21.4336 15.3828V13.1504H22.9717V15.1191C22.9717 15.2012 22.9482 15.2656 22.9014 15.3125C22.8604 15.3594 22.7988 15.3828 22.7168 15.3828H21.4336ZM9.94629 15.374V5.94336H20.0449V15.374H9.94629Z" fill="#999999"/>
</svg>
